<svg xmlns="http://www.w3.org/2000/svg" viewBox="0 0 24 24">
  <path fill-rule="evenodd" d="M6.582 7.536c0-1.503 1.23-2.722 2.749-2.722 1.518 0 2.749 1.219 2.749 2.722s-1.23 2.722-2.75 2.722c-1.517 0-2.748-1.219-2.748-2.722ZM9.33 3C6.8 3 4.749 5.03 4.749 7.536c0 2.505 2.051 4.536 4.582 4.536 2.53 0 4.582-2.03 4.582-4.536C13.913 5.031 11.86 3 9.33 3ZM6.58 13.886c-1.214 0-2.38.478-3.239 1.329A4.513 4.513 0 0 0 2 18.422v1.815c0 .5.41.907.916.907a.912.912 0 0 0 .917-.907v-1.815c0-.721.29-1.414.805-1.924a2.763 2.763 0 0 1 1.944-.797h5.498c.73 0 1.428.287 1.944.797s.805 1.203.805 1.924v1.815c0 .5.41.907.916.907a.912.912 0 0 0 .917-.907v-1.815a4.513 4.513 0 0 0-1.342-3.207 4.605 4.605 0 0 0-3.24-1.329H6.582Zm11.026.799a.917.917 0 0 1 1.117-.652 4.586 4.586 0 0 1 2.475 1.613c.622.794.96 1.77.961 2.776v1.815c0 .5-.41.907-.916.907a.912.912 0 0 1-.917-.907v-1.814a2.7 2.7 0 0 0-.576-1.665 2.752 2.752 0 0 0-1.486-.968.906.906 0 0 1-.658-1.105ZM15.973 3.146a.917.917 0 0 0-1.115.654c-.126.485.17.98.66 1.104a2.75 2.75 0 0 1 1.49.968 2.704 2.704 0 0 1 0 3.337 2.751 2.751 0 0 1-1.49.968.907.907 0 0 0-.66 1.104.917.917 0 0 0 1.115.654 4.586 4.586 0 0 0 2.483-1.613 4.507 4.507 0 0 0 .962-2.781 4.507 4.507 0 0 0-.962-2.782 4.586 4.586 0 0 0-2.483-1.613Z" clip-rule="evenodd"/>
</svg>
