<svg xmlns="http://www.w3.org/2000/svg" viewBox="0 0 24 24">
  <path fill-rule="evenodd" d="M7.06 3.89A9.858 9.858 0 1 1 8.7 20.793L3.134 22.68a.858.858 0 0 1-1.089-1.088l1.887-5.566A9.858 9.858 0 0 1 7.06 3.891Zm6.44-.149a8.142 8.142 0 0 0-7.878 11.833.858.858 0 0 1 .049.668l-1.442 4.253 4.254-1.442a.858.858 0 0 1 .667.05A8.141 8.141 0 1 0 13.5 3.74Zm-.36 4.01a2.142 2.142 0 0 0-2.382 1.4.858.858 0 0 1-1.62-.57 3.858 3.858 0 0 1 7.498 1.286c0 1.455-1.08 2.429-1.882 2.963a7.902 7.902 0 0 1-1.655.833l-.033.012-.01.003-.004.001h-.001s-.001.001-.273-.813l.272.814a.858.858 0 0 1-.545-1.627h.001m0 0 .002-.001.016-.006a5.876 5.876 0 0 0 .374-.151c.252-.112.581-.278.904-.493.698-.465 1.118-.991 1.118-1.536v-.001a2.141 2.141 0 0 0-1.78-2.114M12 16.866c0-.474.384-.858.858-.858h.009a.858.858 0 1 1 0 1.716h-.009a.858.858 0 0 1-.858-.858Z" clip-rule="evenodd"/>
</svg>
