<svg xmlns="http://www.w3.org/2000/svg" viewBox="0 0 25 25">
  <path fill-rule="evenodd" d="M8.05 4.05A7 7 0 0 1 20 9c0 3.353.717 5.435 1.378 6.646a5.9 5.9 0 0 0 .88 1.244 3.03 3.03 0 0 0 .305.284A1 1 0 0 1 22 19H4a1 1 0 0 1-.563-1.826 3.037 3.037 0 0 0 .306-.283c.224-.238.547-.637.88-1.245C5.282 14.435 6 12.353 6 9a7 7 0 0 1 2.05-4.95ZM3.444 17.17ZM6.149 17h13.702a9.422 9.422 0 0 1-.229-.396C18.782 15.065 18 12.647 18 9A5 5 0 0 0 8 9c0 3.647-.783 6.065-1.622 7.604-.076.14-.153.271-.229.396Zm4.62 4.135a1 1 0 0 1 1.366.363 1 1 0 0 0 1.73 0 1 1 0 1 1 1.73 1.004 3.002 3.002 0 0 1-5.19 0 1 1 0 0 1 .363-1.367Z" clip-rule="evenodd"/>
</svg>
