<svg xmlns="http://www.w3.org/2000/svg" viewBox="0 0 24 24">
  <path fill-rule="evenodd" d="m17.472 18.647 2.061-6.423-.863.665c-.105 1.762-1.462 3.158-3.115 3.158-1.723 0-3.123-1.515-3.123-3.38a3.5 3.5 0 0 1 .927-2.397l-1.363-3.112-1.38 3.149c.552.609.888 1.442.888 2.36 0 1.864-1.4 3.379-3.123 3.379-1.63 0-2.97-1.356-3.11-3.082l-.772-.613 2.02 6.296h10.953ZM5.631 20h12.73L22 8.66l-4.621 3.563c.032.147.048.296.048.444 0 1.118-.84 2.027-1.872 2.027-1.033 0-1.873-.91-1.873-2.027 0-.718.348-1.352.877-1.71.123-.084.255-.152.395-.203L11.996 4l-2.967 6.771c.113.045.221.1.322.166.546.353.902.995.902 1.73 0 1.117-.84 2.026-1.872 2.026s-1.872-.91-1.872-2.027c0-.122.012-.244.035-.369L2 8.687 5.63 20Z" clip-rule="evenodd"/>
</svg>
