<svg xmlns="http://www.w3.org/2000/svg" viewBox="0 0 24 24">
  <path fill-rule="evenodd" d="M7 6.167A.833.833 0 0 0 6.167 7v10c0 .46.373.833.833.833h10c.46 0 .833-.373.833-.833V7A.833.833 0 0 0 17 6.167H7ZM4.5 7A2.5 2.5 0 0 1 7 4.5h10A2.5 2.5 0 0 1 19.5 7v10a2.5 2.5 0 0 1-2.5 2.5H7A2.5 2.5 0 0 1 4.5 17V7Z" clip-rule="evenodd"/>
  <path fill-rule="evenodd" d="M8.667 9.5c0-.46.373-.833.833-.833h5c.46 0 .833.373.833.833v5c0 .46-.373.833-.833.833h-5a.833.833 0 0 1-.833-.833v-5Zm1.666.833v3.334h3.334v-3.334h-3.334ZM9.5 2c.46 0 .833.373.833.833v2.5a.833.833 0 1 1-1.666 0v-2.5c0-.46.373-.833.833-.833Zm5 0c.46 0 .833.373.833.833v2.5a.833.833 0 1 1-1.666 0v-2.5c0-.46.373-.833.833-.833Zm-5 15.833c.46 0 .833.373.833.834v2.5a.833.833 0 1 1-1.666 0v-2.5c0-.46.373-.834.833-.834Zm5 0c.46 0 .833.373.833.834v2.5a.833.833 0 0 1-1.666 0v-2.5c0-.46.373-.834.833-.834ZM17.833 9.5c0-.46.373-.833.834-.833h2.5a.833.833 0 0 1 0 1.666h-2.5a.833.833 0 0 1-.834-.833Zm0 4.167c0-.46.373-.834.834-.834h2.5a.833.833 0 0 1 0 1.667h-2.5a.833.833 0 0 1-.834-.833ZM2 9.5c0-.46.373-.833.833-.833h2.5a.833.833 0 1 1 0 1.666h-2.5A.833.833 0 0 1 2 9.5Zm0 4.167c0-.46.373-.834.833-.834h2.5a.833.833 0 0 1 0 1.667h-2.5A.833.833 0 0 1 2 13.667Z" clip-rule="evenodd"/>
</svg>
