<svg width="330" height="200" viewBox="0 0 386 268" fill="none" xmlns="http://www.w3.org/2000/svg" >
<ellipse cx="193.758" cy="139.749" rx="142.694" ry="116.749" fill="#4584FF"/>
<g filter="url(#filter0_d_11768_7260)">
<path d="M331.79 255.744H302.356L291.489 204.084L284.007 255.744H253.153L257.358 217.299L260.034 193.108L261.672 178.527L303.502 167.715L322.452 168.807L331.79 255.744Z" fill="#6BB2AB"/>
<path d="M289.685 200.261C284.716 197.312 279.692 194.418 274.723 191.469C273.303 190.65 271.883 189.831 270.518 189.012C270.245 188.848 270.026 189.285 270.299 189.449C275.269 192.397 280.293 195.292 285.262 198.241C286.682 199.06 288.102 199.879 289.467 200.698C289.74 200.862 289.958 200.425 289.685 200.261Z" fill="#389688"/>
<path d="M288.756 201.353C285.152 200.425 281.603 199.551 277.998 198.623C277.671 198.568 277.616 199.005 277.944 199.114C281.548 200.043 285.097 200.916 288.702 201.845C288.975 201.954 289.084 201.463 288.756 201.353Z" fill="#389688"/>
<path d="M324.526 220.083C323.325 209.489 322.124 198.949 320.868 188.355C320.158 182.348 319.502 176.396 318.793 170.389C318.738 170.061 318.246 170.116 318.301 170.444L321.96 202.335C323.161 212.929 324.363 223.469 325.619 234.063C326.329 240.07 326.984 246.022 327.694 252.029C327.748 252.357 328.24 252.302 328.185 251.974L324.526 220.083Z" fill="#389688"/>
<path d="M362.371 66.0347C361.934 70.2396 360.787 74.3352 359.641 78.4309C358.603 82.1989 357.566 85.9122 356.528 89.6802L344.733 89.4072C343.477 88.6427 342.439 87.5505 341.674 86.2945C340.528 84.547 339.872 82.5811 339.108 80.6152C338.398 78.6493 337.633 76.738 336.432 75.0451C335.995 74.3898 335.449 73.7891 335.231 73.0246C335.012 72.2601 335.285 71.2771 335.995 71.0041C336.76 70.6764 337.633 71.2225 338.289 71.8232C340.582 73.8437 342.603 76.2465 344.186 78.8677H344.241C344.46 72.0963 344.678 65.3794 344.896 58.6079C344.896 58.2257 344.951 57.8434 345.06 57.4612C345.224 57.0789 345.552 56.8059 345.879 56.8059C346.589 56.7513 346.971 57.625 347.135 58.2803C348.227 62.649 348.774 67.1269 348.883 71.6048C349.21 66.9084 349.702 62.2121 350.303 57.5158C350.412 56.5328 350.576 55.4953 351.286 54.7307C351.559 54.4577 351.886 54.2393 352.269 54.2393C352.978 54.2939 353.251 55.1676 353.361 55.8775C354.016 61.0653 354.125 66.3078 353.579 71.4956C354.453 67.0723 355.272 62.649 356.146 58.1711C356.255 57.6796 356.364 57.1881 356.746 56.9151C357.402 56.4782 358.221 57.0789 358.603 57.7888C359.258 58.9902 359.149 60.41 359.04 61.7752C358.658 65.5978 357.839 69.4204 357.019 73.1884C358.002 70.458 359.04 67.7822 360.078 65.1064C360.296 64.5603 360.624 63.9596 361.17 63.8504C361.661 63.7958 362.098 64.178 362.262 64.6149C362.48 65.1064 362.426 65.5978 362.371 66.0347Z" fill="#E88846"/>
<path d="M260.035 193.109L257.359 217.301C254.956 216.591 252.608 213.26 251.844 211.348C250.315 207.799 250.751 203.867 250.697 200.099C250.861 197.478 249.932 194.31 251.243 191.962C253.263 190.488 255.994 191.908 258.178 192.399C258.888 192.563 259.489 192.781 260.035 193.109Z" fill="#E88846"/>
<path d="M356.2 89.0234L343.749 88.6957H343.039L340.254 99.8359C340.254 99.8359 333.483 84.5455 327.913 77.774C322.342 71.0025 303.557 71.1664 303.557 71.1664L278.273 76.3542C278.273 76.3542 260.908 86.566 255.829 90.1155C250.751 93.6651 248.129 94.375 247.037 113.979C245.945 133.529 247.856 193.981 247.856 193.981C247.856 193.981 251.952 197.64 259.87 194.746L261.454 180.384C261.454 180.384 285.154 190.978 301.427 170.609C301.427 170.609 317.373 170.39 322.452 168.752L321.36 139.919L322.452 118.785C322.452 118.785 333.155 141.338 345.879 140.847C358.603 140.355 357.401 111.14 357.674 89.0234H356.2ZM264.621 154.827L265.058 128.942L267.297 141.666L264.621 154.827Z" fill="#AF3737"/>
<path d="M303.502 71.2217C303.502 71.2217 303.174 73.8429 302.519 77.0102C301.754 80.6144 300.498 84.9285 298.696 86.6759L296.512 85.7476L292.471 93.8297L284.662 88.4234L282.641 90.1709C282.641 90.1709 276.853 87.1674 274.177 78.8123C274.177 78.8123 274.723 75.5358 278.982 75.4266L279.037 77.7747L289.686 82.6895L298.587 73.4607L297.768 70.9487C298.041 70.7848 300.607 69.9111 303.502 71.2217Z" fill="#F4E9DC"/>
<path d="M357.509 72.0964C354.506 71.1135 351.393 70.622 348.226 70.5674C347.898 70.5674 347.953 71.0589 348.281 71.0589C351.339 71.1135 354.397 71.6049 357.291 72.5333C357.619 72.6425 357.782 72.2056 357.509 72.0964Z" fill="#C4532C"/>
<path d="M354.236 75.5358C352.215 76.6826 350.359 78.1024 348.72 79.7406C348.502 79.9591 348.884 80.2867 349.103 80.0683C350.686 78.43 352.543 77.0648 354.509 75.9727C354.782 75.7542 354.509 75.372 354.236 75.5358Z" fill="#C4532C"/>
<path d="M263.854 107.701L263.527 101.421C263.527 101.094 263.035 101.148 263.035 101.476C263.472 108.848 263.854 116.275 264.291 123.647C264.4 125.722 264.51 127.797 264.619 129.927C264.619 130.255 265.11 130.2 265.11 129.872C264.673 122.5 264.237 115.073 263.854 107.701Z" fill="#8E2323"/>
<path d="M322.56 117.966C321.304 114.198 319.939 110.43 318.464 106.771C318.027 105.734 317.59 104.642 317.154 103.604C317.044 103.331 316.553 103.495 316.717 103.768C318.3 107.427 319.72 111.14 321.031 114.908C321.413 116 321.795 117.093 322.123 118.13C322.232 118.458 322.669 118.294 322.56 117.966Z" fill="#8E2323"/>
<path d="M320.705 117.804C318.466 115.019 316.227 112.234 313.989 109.503C313.77 109.285 313.388 109.558 313.606 109.776C315.845 112.561 318.084 115.346 320.323 118.077C320.487 118.35 320.869 118.077 320.705 117.804Z" fill="#8E2323"/>
<path d="M339.762 100.438C338.561 104.862 337.359 109.23 336.158 113.654C335.83 114.91 335.502 116.166 335.12 117.422C335.011 117.749 335.502 117.804 335.612 117.476C336.813 113.053 338.014 108.684 339.216 104.261C339.544 103.005 339.871 101.749 340.253 100.493C340.308 100.22 339.817 100.111 339.762 100.438Z" fill="#8E2323"/>
<path d="M312.186 159.743C308.855 163.238 305.578 166.679 302.247 170.174C302.028 170.392 302.411 170.72 302.629 170.501C305.96 167.006 309.237 163.566 312.568 160.071C312.786 159.798 312.404 159.47 312.186 159.743Z" fill="#8E2323"/>
<path d="M306.233 161.927C302.52 166.187 298.752 170.501 294.274 173.996C290.015 177.272 285.045 179.839 279.639 180.549C276.472 180.931 273.25 180.713 270.246 179.62C269.973 179.511 269.755 179.948 270.028 180.057C275.379 181.969 281.277 181.313 286.465 179.129C291.598 176.999 295.967 173.45 299.899 169.572C302.247 167.224 304.431 164.712 306.616 162.2C306.834 162.036 306.452 161.709 306.233 161.927Z" fill="#8E2323"/>
<path d="M264.13 155.483C263.147 158.814 262.328 162.2 261.782 165.64C261.509 167.333 261.236 169.026 261.072 170.719C260.908 172.303 260.744 173.941 260.744 175.579C260.744 177.163 260.963 178.801 261.891 180.112C262.055 180.385 262.492 180.057 262.273 179.839C261.399 178.692 261.181 177.217 261.181 175.852C261.181 174.269 261.345 172.63 261.509 171.047C261.836 167.716 262.382 164.384 263.147 161.108C263.584 159.251 264.075 157.395 264.621 155.538C264.731 155.265 264.239 155.21 264.13 155.483Z" fill="#8E2323"/>
<path d="M302.683 116.275C297.44 120.043 292.58 124.467 288.375 129.381C287.174 130.747 286.027 132.221 284.935 133.641C284.771 133.914 285.099 134.187 285.317 133.968C289.194 128.835 293.727 124.139 298.696 119.989C300.116 118.842 301.536 117.75 303.01 116.658C303.174 116.494 302.901 116.111 302.683 116.275Z" fill="#8E2323"/>
<path d="M300.392 126.595C297.552 128.561 294.658 130.526 291.819 132.492C291.546 132.656 291.873 133.038 292.092 132.875C294.931 130.909 297.826 128.943 300.665 126.977C300.938 126.813 300.665 126.431 300.392 126.595Z" fill="#8E2323"/>
<path d="M289.468 83.4547C287.83 84.8746 286.3 86.4582 284.881 88.0965C284.662 88.3149 285.044 88.6425 285.263 88.4241C286.683 86.8405 288.157 85.3114 289.795 83.8916C290.014 83.6732 289.686 83.2909 289.468 83.4547Z" fill="#E2CAB0"/>
<path d="M296.568 85.3664C294.821 84.438 292.964 83.6189 291.108 82.909C290.835 82.7998 290.616 83.2366 290.889 83.3459C292.746 84.0012 294.603 84.8203 296.35 85.8032C296.678 85.9671 296.841 85.5302 296.568 85.3664Z" fill="#E2CAB0"/>
<path d="M296.185 46.5919C294.983 48.9947 292.963 50.8514 290.396 51.8343C288.157 52.7081 285.645 52.7627 283.406 51.9982C281.713 52.6535 279.857 52.9811 278.055 53.0357C276.471 53.0903 274.887 52.8719 273.358 52.435C271.939 52.0528 270.573 51.3429 269.59 50.2507C267.57 48.0117 267.624 44.899 268.116 42.0594C266.751 40.3665 265.713 38.2914 266.15 36.0525C266.368 35.1241 266.805 34.305 267.461 33.6497C268.116 32.9944 268.99 32.6121 269.809 32.2299C270.737 31.8476 271.665 31.4653 272.539 30.9192C273.468 30.3186 274.341 29.6086 275.324 29.0079C276.962 27.9704 278.983 27.2605 280.84 28.1888C282.26 28.8987 283.352 30.3732 283.461 31.9568C284.99 31.2469 286.628 30.7008 288.266 30.6462C289.85 30.5916 291.379 31.0831 292.744 31.9568C297.441 35.0149 298.533 41.7864 296.185 46.5919Z" fill="#36344C"/>
<path d="M296.895 54.1278L297.332 56.4213C297.605 57.9504 297.55 59.4248 297.277 60.8446C297.004 62.2098 296.458 63.5751 295.748 64.7764C294.001 67.5615 291.161 69.6366 287.721 70.2373C284.28 70.838 280.895 69.9096 278.274 67.8891C277.072 66.9608 276.089 65.814 275.27 64.4488C274.615 63.302 274.123 61.9914 273.85 60.6262L273.413 58.3326C266.86 59.4794 265.058 51.3427 267.516 48.9946C267.57 48.94 267.625 48.8853 267.734 48.8307C269.427 47.4109 271.011 48.6123 271.611 49.1584C270.628 44.5167 272.267 41.9501 272.267 41.9501C274.451 42.2777 276.471 42.2777 278.274 42.0593C281.168 41.7862 283.571 41.0217 285.373 40.2572C287.721 39.2742 289.851 37.7998 289.851 37.7998C289.851 37.7998 293.946 41.1855 295.257 45.172C295.257 45.172 295.967 43.2061 297.714 43.0422C298.151 42.9876 298.588 43.0968 299.134 43.3153C302.301 44.6805 303.448 52.981 296.895 54.1278Z" fill="#E88846"/>
<path d="M298.969 73.1324L289.795 82.6343L278.491 78.0471L278.436 75.2621L278.218 67.8353C280.784 69.8559 284.17 70.8388 287.665 70.1835C291.105 69.5828 293.945 67.5077 295.693 64.7227L298.15 71.0573L298.969 73.1324Z" fill="#E88846"/>
<path d="M295.749 64.7783C295.749 64.7783 293.073 77.3383 278.493 75.3178L278.274 67.891C280.841 69.9115 284.227 70.8945 287.722 70.2392C291.162 69.6385 294.002 67.5634 295.749 64.7783Z" fill="#C4532C"/>
<path d="M287.283 57.0762C285.918 57.5677 284.498 58.0046 283.133 58.3868C283.078 55.1649 282.969 51.943 282.86 48.7211C282.86 48.3935 282.313 48.4481 282.313 48.7757C282.477 52.1068 282.587 55.438 282.641 58.7691C282.641 58.9329 282.86 59.0421 283.023 58.9875C284.552 58.5507 286.027 58.0592 287.556 57.5677C287.829 57.4585 287.611 56.967 287.283 57.0762Z" fill="#C4532C"/>
<path d="M290.78 57.3499C290.998 59.4251 290.015 61.5548 288.268 62.7016C287.995 62.8654 288.322 63.3023 288.595 63.1384C290.507 61.8824 291.544 59.5889 291.326 57.2953C291.271 56.9677 290.725 57.0223 290.78 57.3499Z" fill="#36344C"/>
<path d="M277.617 59.9169C278.763 59.9169 279.692 58.9878 279.692 57.8417C279.692 56.6957 278.763 55.7666 277.617 55.7666C276.471 55.7666 275.542 56.6957 275.542 57.8417C275.542 58.9878 276.471 59.9169 277.617 59.9169Z" fill="#C4532C"/>
<path d="M293.673 55.3836C294.819 55.3836 295.748 54.4546 295.748 53.3085C295.748 52.1625 294.819 51.2334 293.673 51.2334C292.527 51.2334 291.598 52.1625 291.598 53.3085C291.598 54.4546 292.527 55.3836 293.673 55.3836Z" fill="#C4532C"/>
<path d="M278.287 53.8367C279.07 53.6144 279.478 52.6345 279.198 51.6481C278.918 50.6616 278.056 50.0422 277.273 50.2645C276.49 50.4868 276.081 51.4667 276.361 52.4531C276.641 53.4396 277.503 54.0591 278.287 53.8367Z" fill="#36344C"/>
<path d="M289.265 51.158C290.049 50.9357 290.457 49.9558 290.177 48.9694C289.897 47.9829 289.035 47.3635 288.251 47.5858C287.468 47.8081 287.06 48.788 287.34 49.7744C287.62 50.7609 288.482 51.3803 289.265 51.158Z" fill="#36344C"/>
<path d="M278.165 47.52C278.001 47.3015 277.728 47.1377 277.455 47.1377C277.346 47.1377 277.291 47.1377 277.182 47.1377C277.018 47.1377 276.8 47.2469 276.69 47.3561L274.615 48.6121C274.397 48.7213 274.233 49.049 274.233 49.322C274.178 49.5951 274.288 49.9227 274.451 50.1412C274.615 50.3596 274.888 50.5234 275.161 50.5234C275.271 50.5234 275.325 50.5234 275.434 50.5234C275.598 50.5234 275.817 50.4142 275.926 50.305L278.001 49.049C278.219 48.9398 278.383 48.6121 278.383 48.3391C278.383 48.066 278.329 47.7384 278.165 47.52Z" fill="#36344C"/>
<path d="M285.701 45.3901C285.755 45.1171 285.865 44.844 286.083 44.6802C286.138 44.6256 286.247 44.571 286.301 44.5164C286.465 44.4618 286.684 44.4071 286.848 44.4071L289.305 44.3525C289.578 44.3525 289.851 44.5164 290.015 44.7348C290.179 44.9532 290.288 45.2809 290.233 45.4993C290.179 45.7724 290.069 46.0454 289.851 46.2092C289.796 46.2638 289.687 46.3184 289.633 46.3731C289.469 46.4277 289.25 46.4823 289.086 46.4823L286.629 46.5369C286.356 46.5369 286.083 46.3731 285.919 46.1546C285.755 45.9908 285.646 45.6631 285.701 45.3901Z" fill="#36344C"/>
<path d="M91.5147 192.29L84.0879 255.745H118.983L126.136 209.055L134.219 255.745H170.26L159.775 192.29H91.5147Z" fill="#AF3737"/>
<path d="M123.897 208.891C120.839 208.017 117.835 207.143 114.777 206.27C114.504 206.16 114.395 206.652 114.723 206.707C117.781 207.58 120.784 208.454 123.842 209.328C124.115 209.437 124.17 209 123.897 208.891Z" fill="#8E2323"/>
<path d="M122.258 210.638L113.412 211.184C113.084 211.184 113.138 211.676 113.466 211.676L122.313 211.129C122.586 211.075 122.531 210.583 122.258 210.638Z" fill="#8E2323"/>
<path d="M107.243 79.2511C107.243 79.2511 102.329 79.3057 99.762 83.1829C99.762 83.1829 86.4375 86.1318 83.6525 90.9373C80.9221 95.7429 64.1572 122.993 64.1572 122.993L78.5739 151.28C78.5739 151.28 85.5092 149.587 84.7447 142.269L89.3318 136.536L92.3899 155.43L89.6594 198.407C89.6594 198.407 99.3798 207.144 105.496 207.909C111.667 208.673 126.684 198.352 126.684 198.352C126.684 198.352 141.374 207.964 146.835 208.51C152.295 209.056 161.306 197.806 161.306 197.806L156.5 146.857L157.374 117.75L172.774 125.395C172.774 125.395 178.071 134.078 187.518 128.399L183.968 105.19C183.968 105.19 160.05 87.9885 154.425 84.2205C148.91 80.3979 130.343 80.7255 130.343 80.7255C130.343 80.7255 127.176 77.6675 123.899 78.1589L107.243 79.2511Z" fill="#F2B34E"/>
<path d="M115.435 101.862C113.742 99.4042 112.049 96.8922 109.865 94.8717C107.953 93.0696 105.551 91.5406 102.875 91.1037C101.564 90.8853 100.144 90.9945 98.9976 91.5952C98.7245 89.3562 98.9976 87.1173 99.8713 85.0422C99.9805 84.7691 99.5436 84.5507 99.4344 84.8237C98.5061 87.0627 98.233 89.5747 98.5607 91.9774C98.5607 92.1413 98.7791 92.2505 98.9429 92.1413C101.127 90.7214 104.131 91.6498 106.26 92.7966C108.663 94.1072 110.575 96.0731 112.267 98.2028C113.25 99.4588 114.179 100.824 115.107 102.135C115.216 102.353 115.599 102.08 115.435 101.862Z" fill="#EA8C11"/>
<path d="M132.254 82.9636C132.145 82.6905 131.708 82.8543 131.817 83.1274C132.691 85.2025 133.346 87.3869 133.674 89.5712C128.595 90.1173 124.718 93.9399 121.878 97.9263C121.004 99.1823 120.185 100.493 119.366 101.749C119.202 102.022 119.585 102.295 119.748 102.022C122.424 97.7625 125.373 93.23 130.069 91.0456C131.325 90.4449 132.636 90.1173 134.001 89.9535C134.11 89.9535 134.22 89.8442 134.22 89.6804C133.837 87.4415 133.182 85.1479 132.254 82.9636Z" fill="#EA8C11"/>
<path d="M84.145 141.231C82.1245 136.59 79.2302 132.275 75.6261 128.671C74.5885 127.634 73.5509 126.651 72.4042 125.722C72.1857 125.504 71.8581 125.886 72.1311 126.105C76.0083 129.272 79.2848 133.204 81.7968 137.573C82.5067 138.829 83.162 140.085 83.7081 141.45C83.8173 141.668 84.2542 141.504 84.145 141.231Z" fill="#EA8C11"/>
<path d="M172.719 105.027C172.773 104.754 172.337 104.645 172.282 104.973C171.244 109.833 170.917 114.857 171.354 119.826C171.463 121.246 171.681 122.666 171.9 124.086C171.954 124.359 172.391 124.359 172.391 124.031C171.572 119.116 171.463 114.147 172.063 109.177C172.173 107.703 172.446 106.338 172.719 105.027Z" fill="#EA8C11"/>
<path d="M123.515 161.821C122.641 149.917 121.767 138.012 120.894 126.107C120.402 119.445 119.911 112.728 119.419 106.066C119.419 105.738 118.928 105.793 118.928 106.12C119.801 118.025 120.675 129.93 121.549 141.834C122.423 153.739 123.296 165.644 124.17 177.548L125.645 197.59C125.645 197.917 126.136 197.863 126.136 197.535C125.262 185.685 124.389 173.78 123.515 161.821Z" fill="#EA8C11"/>
<path d="M87.4201 117.26C87.2017 115.621 86.9287 113.928 86.7102 112.29C86.6556 112.017 86.2188 112.017 86.2188 112.345C87.0925 118.188 87.9116 124.031 88.7854 129.929C89.0038 131.567 89.2768 133.26 89.4953 134.898C89.5499 135.171 89.9867 135.171 89.9867 134.844C89.113 129 88.2393 123.103 87.4201 117.26Z" fill="#EA8C11"/>
<path d="M88.0215 133.861C87.0931 130.257 86.1102 126.653 85.1818 123.049C85.1272 122.775 84.6903 122.939 84.7449 123.212C85.6733 126.817 86.6562 130.421 87.5846 134.025C87.6938 134.353 88.0761 134.189 88.0215 133.861Z" fill="#EA8C11"/>
<path d="M158.084 100.22C157.865 104.424 157.647 108.684 157.428 112.889C157.374 114.09 157.319 115.292 157.21 116.493C157.21 116.766 157.647 116.875 157.647 116.548C157.865 112.343 158.084 108.083 158.302 103.878C158.357 102.677 158.411 101.476 158.521 100.274C158.521 100.001 158.084 99.892 158.084 100.22Z" fill="#EA8C11"/>
<path d="M126.79 84.114L117.015 103.773L104.946 85.4792L105.329 81.1651L105.984 73.5199C108.387 75.9227 111.772 77.2879 115.377 77.0695C118.981 76.851 122.148 75.0489 124.223 72.4277L126.79 84.114Z" fill="#D36D29"/>
<path d="M124.225 72.4277C124.225 72.4277 120.184 82.6941 105.494 78.8715L105.986 73.5199C108.388 75.9227 111.774 77.2879 115.378 77.0695C118.982 76.851 122.15 75.1036 124.225 72.4277Z" fill="#AA3617"/>
<path d="M125.972 63.3627L126.135 65.6016C126.245 67.0761 126.026 68.4959 125.589 69.8065C125.152 71.1171 124.497 72.3185 123.678 73.3561C121.712 75.8134 118.818 77.5063 115.432 77.6701C112.046 77.8886 108.934 76.578 106.695 74.3936C105.657 73.3561 104.838 72.1547 104.237 70.7895C103.746 69.5881 103.418 68.3321 103.309 66.9669L103.2 64.7279C97.0836 65.1102 96.1006 57.6834 98.3942 55.4444C98.4488 55.3898 98.558 55.2806 98.6126 55.226C98.6672 55.1714 98.7765 55.1168 98.8311 55.0622C100.633 53.9154 101.998 55.226 102.49 55.7721C103.2 55.1168 103.746 54.2431 103.964 53.2601C104.183 52.3318 104.128 51.3488 103.8 50.4751C104.62 50.3658 105.439 49.9836 106.039 49.4375C106.859 48.673 107.295 47.5262 107.241 46.434C107.951 46.7617 108.715 46.9255 109.48 46.8709C109.917 46.8709 110.299 46.7617 110.681 46.5979C111.773 46.161 112.702 45.2872 113.084 44.1405C114.121 45.0142 115.487 45.4511 116.852 45.4511C118.217 45.4511 119.528 44.905 120.565 44.0312C120.675 45.0688 121.002 45.9972 121.603 46.8709C121.767 47.0893 121.876 47.3078 122.094 47.4716C122.804 48.2907 123.787 49.0006 124.825 49.3283C124.224 50.8027 124.333 52.4956 124.989 53.9154C125.098 54.0246 125.262 54.1884 125.371 54.2977V54.5707C125.425 54.4615 126.299 52.7686 127.937 52.8232C128.32 52.8232 128.757 52.9324 129.248 53.2601C129.412 53.3693 129.576 53.4785 129.74 53.6424C132.142 55.9359 131.978 63.035 125.972 63.3627Z" fill="#D36D29"/>
<path d="M116.524 65.1633C115.158 65.4363 113.793 65.7094 112.428 65.9824C112.756 62.9243 112.974 59.8116 113.192 56.7536C113.192 56.4259 112.701 56.4259 112.701 56.7536C112.483 59.9208 112.209 63.1428 111.882 66.3101C111.882 66.4739 112.046 66.5831 112.209 66.5285C113.684 66.2554 115.213 65.9824 116.687 65.6547C116.96 65.6001 116.851 65.1087 116.524 65.1633Z" fill="#AA3617"/>
<path d="M107.243 66.8029C108.329 66.8029 109.209 65.9227 109.209 64.837C109.209 63.7513 108.329 62.8711 107.243 62.8711C106.158 62.8711 105.277 63.7513 105.277 64.837C105.277 65.9227 106.158 66.8029 107.243 66.8029Z" fill="#AA3617"/>
<path d="M122.968 64.2355C124.054 64.2355 124.934 63.3554 124.934 62.2696C124.934 61.1839 124.054 60.3037 122.968 60.3037C121.882 60.3037 121.002 61.1839 121.002 62.2696C121.002 63.3554 121.882 64.2355 122.968 64.2355Z" fill="#AA3617"/>
<path d="M108.288 61.0509C109.062 60.9243 109.563 60.0495 109.407 59.097C109.251 58.1446 108.497 57.4751 107.723 57.6018C106.95 57.7284 106.449 58.6032 106.604 59.5556C106.76 60.5081 107.514 61.1776 108.288 61.0509Z" fill="#36344C"/>
<path d="M119.047 59.6818C119.821 59.5551 120.322 58.6804 120.166 57.7279C120.01 56.7754 119.256 56.106 118.482 56.2326C117.708 56.3593 117.207 57.234 117.363 58.1865C117.519 59.139 118.273 59.8084 119.047 59.6818Z" fill="#36344C"/>
<path d="M108.879 55.0608C108.715 54.8424 108.551 54.6786 108.278 54.6239C108.169 54.6239 108.114 54.6239 108.005 54.5693C107.841 54.5693 107.677 54.6239 107.513 54.7332L105.384 55.6615C105.165 55.7707 105.001 56.0438 104.947 56.2622C104.892 56.4806 104.892 56.8083 105.056 57.0267C105.22 57.2452 105.384 57.409 105.657 57.4636C105.766 57.4636 105.82 57.4636 105.93 57.5182C106.094 57.5182 106.257 57.4636 106.421 57.3544L108.551 56.426C108.769 56.3168 108.933 56.0438 108.988 55.8253C109.042 55.6069 108.988 55.2792 108.879 55.0608Z" fill="#36344C"/>
<path d="M116.251 53.8601C116.306 53.5871 116.469 53.3687 116.688 53.2048C116.742 53.1502 116.852 53.1502 116.906 53.0956C117.07 53.041 117.234 53.041 117.452 53.041L119.746 53.2595C119.964 53.2595 120.237 53.4779 120.401 53.6963C120.565 53.9148 120.62 54.2424 120.565 54.4608C120.51 54.7339 120.347 54.9523 120.128 55.1161C120.074 55.1707 119.964 55.1707 119.91 55.2254C119.746 55.28 119.582 55.28 119.364 55.28L117.07 55.0615C116.852 55.0615 116.579 54.8431 116.415 54.6247C116.251 54.4062 116.196 54.0786 116.251 53.8601Z" fill="#36344C"/>
<path d="M131.595 50.856C131.322 51.9482 130.612 52.8765 129.848 53.7503C129.684 53.5865 129.52 53.4772 129.356 53.368C128.865 53.095 128.428 52.9858 128.046 52.9312C126.407 52.8765 125.534 54.5694 125.479 54.6786V54.4056C125.37 54.2964 125.206 54.1325 125.097 54.0233C124.551 52.9858 124.387 51.7298 124.605 50.583C123.622 50.6922 122.639 50.5284 121.766 50.0369C120.837 49.5454 120.182 48.6717 119.8 47.7433C119.254 48.0164 118.653 48.2348 118.052 48.344C116.632 48.5625 115.213 48.1256 114.066 47.2519C113.684 47.5795 113.301 47.8526 112.864 48.071C111.608 48.7263 110.079 48.8355 108.714 48.3986C108.441 49.1086 108.059 49.7093 107.513 50.2553C106.584 51.1291 105.383 51.6752 104.127 51.7298C104.182 52.2759 104.182 52.8219 104.018 53.368C103.799 54.351 103.253 55.2247 102.543 55.88C102.052 55.3339 100.687 54.0233 98.8846 55.1701C98.83 55.2247 98.7754 55.2793 98.6662 55.3339C98.5569 55.3885 98.5023 55.4432 98.4477 55.5524C97.9016 55.1155 97.574 54.4056 97.5194 53.6957C97.4648 52.7673 98.0109 51.839 98.83 51.3475C98.0109 50.583 97.6832 49.3816 98.0109 48.2894C98.2839 47.2519 99.2122 46.3781 100.25 46.1051C99.3761 45.0129 99.3761 43.3201 100.195 42.2279C101.014 41.0811 102.653 40.6442 103.909 41.1357C103.526 39.7159 104.182 38.0776 105.492 37.3677C106.803 36.6578 108.55 36.9308 109.533 38.023C109.752 36.494 110.953 35.1834 112.428 34.9103C113.902 34.6373 115.54 35.3472 116.305 36.6578C116.905 35.4564 118.271 34.6373 119.581 34.8011C120.946 34.9103 122.148 35.9479 122.476 37.2039C123.513 36.3302 125.206 36.6578 126.134 37.5862C127.117 38.5145 127.445 39.9343 127.554 41.2995C128.482 40.8627 129.684 41.1903 130.394 42.0094C131.104 42.774 131.322 43.8661 131.213 44.9037C131.104 45.9413 130.667 46.9242 130.121 47.798C131.322 48.1256 131.868 49.6546 131.595 50.856Z" fill="#36344C"/>
<path d="M120.893 69.8607C120.019 71.0621 118.545 71.6628 117.07 71.3897C115.814 71.1713 113.958 70.0791 114.449 68.5501C114.668 67.8402 115.377 67.4033 116.033 67.1849C116.688 66.9664 117.343 67.021 117.944 67.1849C118.162 66.5842 118.436 66.0381 118.927 65.7104C119.582 65.2736 120.401 65.219 121.002 65.7651C122.149 66.8572 121.657 68.7685 120.893 69.8607Z" fill="#F4E9DC"/>
<path d="M46.2441 109.832C46.2441 109.832 56.4559 160.29 67.8691 157.778C79.2277 155.212 80.3199 149.587 78.4086 144.945C76.4973 140.249 57.7119 104.753 57.7119 104.753C57.7119 104.753 57.7119 97.7089 55.8006 91.9204C53.8893 86.1319 54.6538 78.4867 53.8347 77.6129C53.0156 76.7392 49.5206 75.4286 50.0121 88.2616C50.0121 88.2616 35.5955 71.6606 33.4111 74.0088C31.2268 76.3023 41.5478 87.934 41.5478 87.934C41.5478 87.934 27.6772 76.6846 26.312 78.6505C25.0014 80.5618 36.9061 90.8828 36.9061 90.8828C36.9061 90.8828 27.0219 82.7462 25.5475 84.2752C24.073 85.8042 35.7047 95.1969 35.7047 95.1969C35.7047 95.1969 23.8546 93.6679 23.8 95.743C23.7454 97.8181 34.9948 99.1833 34.9948 99.1833C34.9948 99.1833 39.9641 107.429 46.2441 109.832Z" fill="#D36D29"/>
<path d="M45.0432 87.605C44.2241 88.0965 43.4595 88.588 42.695 89.1341C42.695 89.0795 42.695 89.0795 42.6404 89.0795L41.3298 87.5504C41.2752 87.4412 41.1114 87.4412 41.0022 87.4958C40.8929 87.5504 40.8929 87.7143 40.9476 87.8235L42.2582 89.3525L42.3128 89.4071C41.0022 90.3355 39.6916 91.373 38.5448 92.5198C37.7803 91.7007 37.0703 90.9362 36.3058 90.117C36.1966 90.0078 36.0874 90.0078 35.9782 90.0624C35.869 90.117 35.869 90.2809 35.9236 90.3901L38.1625 92.7929C38.1625 92.7929 38.1625 92.7929 38.2171 92.8475C37.8349 93.2297 37.4526 93.5574 37.125 93.9396C36.9065 94.1581 37.2888 94.4311 37.4526 94.2127C39.7462 91.8099 42.3674 89.6802 45.2616 87.9873C45.5347 87.8235 45.2616 87.4412 45.0432 87.605Z" fill="#AA3617"/>
<path d="M47.8283 93.6662C47.0638 95.9051 46.6816 98.2533 46.627 100.601C46.627 100.875 47.0638 100.82 47.0638 100.547C47.1184 98.2533 47.5007 96.0143 48.2106 93.8846C48.3198 93.557 47.9376 93.3931 47.8283 93.6662Z" fill="#AA3617"/>
<path d="M55.2 106.827C53.3979 107.428 51.5958 108.138 49.8483 108.957C49.5753 109.066 49.7391 109.503 50.0122 109.394C51.7596 108.574 53.5071 107.865 55.3638 107.264C55.6368 107.155 55.473 106.718 55.2 106.827Z" fill="#AA3617"/>
<path d="M192.486 76.029C192.486 76.029 199.203 127.088 187.626 128.344C176.049 129.655 173.209 124.685 173.482 119.607C173.755 114.528 180.035 74.8822 180.035 74.8822C180.035 74.8822 177.742 68.22 177.687 62.1038C177.578 55.9876 174.411 49.0524 174.902 47.9056C175.394 46.7588 178.288 44.4652 181.947 56.7522C181.947 56.7522 190.193 36.3832 193.032 37.8576C195.872 39.332 189.865 53.6395 189.865 53.6395C189.865 53.6395 199.367 38.5675 201.224 39.9873C203.08 41.4072 195.162 55.0593 195.162 55.0593C195.162 55.0593 201.879 44.1376 203.736 45.1205C205.592 46.1035 197.674 58.7181 197.674 58.7181C197.674 58.7181 208.377 53.421 209.087 55.387C209.797 57.3529 199.64 62.3222 199.64 62.3222C199.64 62.3222 197.674 71.6603 192.486 76.029Z" fill="#D36D29"/>
<path d="M186.424 54.5673C187.353 54.7311 188.226 55.0042 189.155 55.2772C189.155 55.2226 189.155 55.2226 189.155 55.168L189.919 53.3113C189.974 53.2021 190.083 53.1475 190.192 53.1475C190.301 53.2021 190.411 53.3113 190.356 53.4205L189.591 55.2772C189.591 55.3318 189.591 55.3318 189.537 55.3318C191.12 55.8233 192.65 56.3694 194.124 57.0247C194.561 56.0417 194.998 55.0588 195.435 54.0212C195.489 53.912 195.598 53.8574 195.708 53.8574C195.817 53.912 195.926 54.0212 195.871 54.1304L194.561 57.1339C194.561 57.1339 194.561 57.1339 194.561 57.1885C195.052 57.4069 195.489 57.6254 195.981 57.8984C196.254 58.0076 195.981 58.4445 195.762 58.2807C192.813 56.7516 189.646 55.6048 186.37 54.9495C185.987 54.9495 186.151 54.5127 186.424 54.5673Z" fill="#AA3617"/>
<path d="M185.769 61.2307C187.189 63.0874 188.335 65.1626 189.155 67.4015C189.264 67.6746 188.827 67.7838 188.718 67.5107C187.953 65.381 186.806 63.3605 185.441 61.5584C185.223 61.2854 185.55 61.0123 185.769 61.2307Z" fill="#AA3617"/>
<path d="M183.038 76.0293C184.95 76.0293 186.861 76.0839 188.772 76.3023C189.045 76.3569 189.045 76.7938 188.772 76.7392C186.861 76.5208 184.95 76.4662 183.038 76.4662C182.711 76.5208 182.765 76.0839 183.038 76.0293Z" fill="#AA3617"/>
<path d="M231.64 67.6721C229.783 69.8018 226.78 70.8394 224.049 70.1295C221.21 69.3649 219.025 67.2352 216.459 65.9246C215.093 65.2693 213.619 64.7232 212.527 63.5764C212.418 63.4126 212.254 63.3034 212.145 63.1396C212.035 62.9757 211.926 62.8119 211.817 62.6481C210.288 59.9723 211.872 56.5319 213.51 54.293C215.312 51.8902 217.988 50.0881 221.046 49.7059C223.94 49.3236 226.78 50.3066 229.019 52.1086C231.312 53.9653 233.005 56.5865 233.606 59.4808C234.206 62.2658 233.551 65.4877 231.64 67.6721Z" fill="#AF3737"/>
<path d="M235.789 77.0664C235.789 87.2782 229.017 93.3398 220.389 93.3398C211.761 93.3398 204.553 87.2782 204.553 77.0664C204.553 66.8546 211.543 60.8477 220.171 60.8477C228.799 60.8477 235.789 66.9092 235.789 77.0664Z" fill="#AF3737"/>
<path d="M159.662 45.2301C159.389 47.4145 158.734 49.5442 158.297 51.6739C157.696 54.6774 157.642 57.7355 157.096 60.739C156.604 63.6332 155.621 66.5275 153.655 68.6572C153.655 69.3671 153.71 70.1316 153.71 70.8415L142.406 68.0565C142.515 66.9097 142.57 65.7083 142.679 64.5616C141.095 61.1212 140.495 57.2986 139.293 53.6398C137.928 49.4896 135.798 45.5578 134.816 41.2983C134.761 41.0253 134.706 40.7522 134.761 40.4792C134.816 40.2061 134.979 39.9331 135.252 39.8785C135.689 39.7693 136.072 40.1515 136.29 40.5338C137.819 42.7181 139.184 45.0663 140.386 47.4691C139.293 43.7011 138.529 39.8785 138.092 36.0013C137.983 35.1821 137.928 34.363 138.037 33.5439C138.092 33.2162 138.256 32.834 138.529 32.7794C138.857 32.7248 139.13 32.9432 139.348 33.1616C139.894 33.7623 140.167 34.5268 140.495 35.2914C141.969 39.1686 143.116 43.155 144.263 47.196L144.372 47.1414C143.389 42.172 142.461 37.1481 142.242 32.1241C142.242 31.851 142.242 31.5234 142.297 31.2503C142.406 30.9773 142.625 30.7042 142.898 30.7042C143.28 30.6496 143.607 30.9773 143.826 31.3049C144.645 32.3971 145.082 33.7623 145.464 35.0729C146.338 37.9672 146.939 40.916 147.539 43.8649C147.321 40.7522 147.157 37.6395 147.048 34.5268C146.993 33.4893 146.993 32.4517 147.321 31.5234C147.43 31.1411 147.758 30.6496 148.195 30.7042C148.522 30.7588 148.741 31.0865 148.85 31.4142C150.597 35.2368 150.87 39.4962 151.526 43.5919C151.963 46.3223 152.563 49.0527 153.382 51.7285C154.147 49.0527 155.348 46.4861 156.987 44.2472C157.26 43.9195 157.478 43.5919 157.86 43.3188C158.188 43.1004 158.679 42.9912 159.062 43.155C159.717 43.5373 159.772 44.4656 159.662 45.2301Z" fill="#F99958"/>
<path d="M149.504 43.8115C148.958 44.0299 148.412 44.303 147.866 44.576C147.811 44.1391 147.757 43.7023 147.702 43.32C147.702 43.2108 147.538 43.1016 147.429 43.1016C147.32 43.1016 147.211 43.2108 147.211 43.3746C147.265 43.8115 147.32 44.303 147.374 44.7398C147.374 44.7944 147.374 44.7944 147.429 44.849C145.518 45.832 143.716 47.088 142.132 48.5624C141.914 48.7809 142.187 49.1631 142.405 48.9447C144.535 46.9788 147.047 45.3951 149.723 44.303C149.941 44.1391 149.777 43.7023 149.504 43.8115Z" fill="#D36D29"/>
<path d="M140.549 47.195C140.494 47.0858 140.331 47.0858 140.221 47.1404C140.112 47.2496 140.112 47.3588 140.167 47.468C140.167 47.468 140.167 47.5226 140.221 47.5226C140.221 47.5772 140.276 47.6318 140.276 47.6318C140.331 47.6864 140.331 47.7957 140.385 47.9049C140.385 47.9595 140.385 47.9595 140.44 48.0141V48.0687V48.1233C140.44 48.2325 140.494 48.2871 140.494 48.3964C140.494 48.5056 140.658 48.6148 140.767 48.6148C140.877 48.6148 140.986 48.5056 140.986 48.3418C140.931 47.9595 140.767 47.5772 140.549 47.195Z" fill="#D36D29"/>
<path d="M150.596 57.1347C149.012 54.9504 146.937 53.0937 144.589 51.6738C144.316 51.51 144.098 51.9469 144.371 52.1107C146.664 53.4759 148.63 55.278 150.159 57.4077C150.432 57.6808 150.814 57.4077 150.596 57.1347Z" fill="#D36D29"/>
<path d="M269.156 234.176C269.156 234.722 269.156 235.268 269.101 235.869C269.101 236.36 269.047 236.852 268.774 237.234C268.555 237.507 268.118 237.726 267.791 237.562C267.408 237.453 267.19 237.125 267.081 236.797C266.862 236.306 266.753 235.814 266.589 235.323C266.425 234.777 266.262 234.231 266.098 233.685C265.989 233.193 265.825 232.702 265.715 232.21C265.661 233.248 265.552 234.231 265.442 235.268C265.224 236.688 264.896 238.053 264.35 239.364C264.132 239.855 263.913 240.456 263.367 240.565C262.93 240.674 262.494 240.456 262.275 240.019C262.002 239.528 262.057 238.927 262.057 238.381C262.057 237.562 262.111 236.743 262.111 235.978C262.111 235.377 262.111 234.722 262.166 234.121C262.057 234.449 262.002 234.831 261.893 235.159C261.62 236.251 261.238 237.289 260.855 238.326C260.528 239.091 259.763 240.019 258.889 239.528C258.507 239.309 258.398 238.927 258.289 238.599C258.179 238.053 258.179 237.453 258.179 236.906C258.179 236.197 258.234 235.432 258.289 234.722C258.016 235.214 257.688 235.705 257.36 236.142C257.142 236.47 256.869 236.906 256.432 237.016C256.104 237.125 255.722 237.016 255.504 236.743C255.34 236.47 255.34 236.197 255.394 235.869C255.449 235.432 255.558 234.995 255.667 234.558C255.886 233.575 256.104 232.592 256.323 231.609C256.541 230.572 256.76 229.589 256.978 228.551C257.197 227.568 257.415 226.585 257.524 225.602C257.579 224.674 257.415 223.8 257.197 222.927C256.869 222.381 256.541 221.78 256.268 221.179C254.958 218.394 254.411 215.118 255.504 212.169C256.214 210.257 257.633 208.674 259.435 207.8C259.545 207.691 259.709 207.636 259.818 207.527C260.582 207.09 261.511 206.872 262.384 206.981C263.258 207.09 264.077 207.527 264.678 208.182C266.098 209.657 266.48 211.732 266.862 213.643C267.354 215.882 267.736 218.176 268.118 220.415C268.774 225.056 269.21 229.644 269.156 234.176Z" fill="#F99958"/>
<path d="M261.947 223.419C261.838 225.712 261.728 228.115 261.073 230.354C260.909 230.791 260.636 231.501 260.09 231.446C259.599 231.391 259.435 230.736 259.38 230.354C259.107 229.207 259.107 228.006 258.943 226.859C258.834 225.712 258.561 224.565 258.015 223.528C257.851 223.255 257.469 223.528 257.633 223.801C258.233 224.893 258.397 226.149 258.506 227.35C258.616 228.552 258.616 229.862 259.053 231.009C259.216 231.391 259.435 231.774 259.872 231.883C260.363 231.992 260.855 231.774 261.128 231.391C261.455 230.955 261.619 230.354 261.728 229.808C261.892 229.152 262.001 228.552 262.111 227.896C262.329 226.422 262.384 225.002 262.438 223.528C262.438 223.2 261.947 223.091 261.947 223.419Z" fill="#D36D29"/>
<path d="M258.669 231.99C258.505 232.863 258.396 233.737 258.232 234.611C258.177 234.939 258.669 234.993 258.723 234.665C258.887 233.792 258.996 232.918 259.16 232.044C259.215 231.717 258.723 231.662 258.669 231.99Z" fill="#D36D29"/>
<path d="M262.111 229.917C262.056 231.282 261.947 232.647 261.893 234.067C261.893 234.395 262.329 234.449 262.384 234.122C262.439 232.757 262.548 231.391 262.602 229.972C262.602 229.698 262.111 229.589 262.111 229.917Z" fill="#D36D29"/>
<path d="M265.443 226.094C265.388 225.767 264.897 225.821 264.951 226.149C265.388 228.224 265.607 230.354 265.607 232.483C265.607 232.811 266.098 232.756 266.098 232.429C266.098 230.299 265.88 228.169 265.443 226.094Z" fill="#D36D29"/>
<path d="M216.129 180.496L182.709 178.858C182.709 178.858 171.077 178.311 169.712 255.746H201.112L210.832 212.442L216.129 255.746H244.689C244.689 255.746 251.734 187.267 234.969 180.223L216.129 180.496Z" fill="#36344C"/>
<path d="M237.863 183.062C204.169 192.892 186.694 181.042 186.694 181.042L191.609 152.755L195.814 112.017L230.873 113.655L234.914 160.072C234.641 160.127 237.863 183.062 237.863 183.062Z" fill="#F4E9DC"/>
<path d="M223.883 140.086C223.883 141.942 223.665 143.799 223.446 145.656C223.228 147.512 222.955 149.369 222.682 151.226C222.136 154.775 221.317 158.489 219.624 161.711C218.968 162.967 217.985 164.223 216.566 164.496C214.982 164.823 213.562 163.786 212.47 162.748C211.05 161.383 209.794 159.909 208.429 158.489C207.228 157.178 205.972 155.922 204.879 154.557C203.896 153.246 203.077 151.826 202.75 150.243C202.422 148.55 202.75 146.802 203.405 145.219C204.06 143.581 205.043 142.106 206.081 140.686C207.064 139.321 208.156 138.011 209.303 136.755C209.74 136.318 210.122 135.881 210.559 135.499C211.269 134.734 212.033 133.969 212.852 133.26C214.108 132.167 215.473 131.075 216.948 130.256C217.658 129.874 218.477 129.601 219.296 129.655C220.006 129.71 220.661 130.038 221.153 130.529C222.299 131.567 222.9 133.15 223.282 134.625C223.719 136.427 223.883 138.284 223.883 140.086Z" fill="#F2B34E"/>
<path d="M226.721 156.087C227.377 160.838 222.025 163.022 218.257 161.002C214.271 157.015 212.742 140.578 222.244 144.346C226.448 146.476 226.94 151.827 226.721 156.087Z" fill="#D36D29"/>
<path d="M206.571 140.523C203.13 142.325 198.98 142.271 195.649 140.25C194.775 139.704 193.956 139.049 193.246 138.284C193.028 138.066 192.646 138.339 192.864 138.557C195.54 141.452 199.526 142.872 203.458 142.107C204.605 141.889 205.697 141.506 206.735 140.96C207.008 140.796 206.844 140.36 206.571 140.523Z" fill="#E2CAB0"/>
<path d="M234.314 142.161C230.655 144.345 226.068 144.564 222.19 142.707C221.153 142.216 220.17 141.56 219.296 140.796C219.078 140.577 218.75 140.96 218.969 141.178C222.3 144.018 226.887 145.11 231.146 143.963C232.348 143.635 233.494 143.144 234.587 142.543C234.86 142.434 234.587 141.997 234.314 142.161Z" fill="#E2CAB0"/>
<path d="M230.765 87.3887L230.655 89.5184C230.601 90.3376 230.492 91.1567 230.273 91.8666C229.563 94.3786 227.98 96.5083 225.904 97.9282C223.993 99.2388 221.59 99.9487 219.078 99.8395C216.184 99.6756 213.618 98.365 211.761 96.3991C209.795 94.2694 208.594 91.3751 208.812 88.2624L208.921 86.1327C202.805 85.7505 202.969 78.0506 205.645 76.5216C207.72 75.3202 208.976 77.1223 209.303 77.6684C209.303 77.6684 211.16 77.6684 213.672 77.0677C216.348 76.4124 219.843 75.1018 222.683 72.4806C223.119 72.0437 223.611 71.6068 223.993 71.0607C224.648 70.2962 225.195 69.4225 225.741 68.4941C225.741 68.4941 227.597 69.8047 229.181 72.2621C229.782 73.1359 230.273 74.228 230.655 75.3748C231.038 76.5216 231.256 77.723 231.311 79.0882C231.475 78.8698 233.058 76.74 235.188 78.3237C235.516 78.5421 235.734 78.8698 235.952 79.252C236.062 79.4705 236.171 79.6889 236.28 79.9619C237.154 82.8016 235.679 87.7164 230.765 87.3887Z" fill="#F99958"/>
<path d="M239.994 109.232C239.612 110.215 238.956 111.307 238.137 112.4C228.908 125.014 210.341 125.888 199.747 114.42C197.126 111.635 194.942 108.959 193.85 106.993C198.655 106.01 210.341 103.771 210.341 103.771L210.56 102.625L211.27 98.9113L211.761 96.3447C213.618 98.3106 216.185 99.6212 219.079 99.7851C221.591 99.9489 223.939 99.239 225.905 97.8738L226.123 100.768L226.396 104.263C227.106 104.481 239.994 109.178 239.994 109.232Z" fill="#F99958"/>
<path d="M220.935 88.3161C219.679 88.3161 218.369 88.2615 217.113 88.2069C217.986 85.531 218.86 82.8006 219.679 80.1248C219.788 79.8518 219.297 79.7425 219.242 80.0156C218.423 82.8006 217.55 85.5857 216.621 88.3707C216.567 88.5345 216.73 88.6437 216.84 88.6437C218.205 88.6983 219.625 88.753 220.99 88.753C221.208 88.8076 221.208 88.3161 220.935 88.3161Z" fill="#D36D29"/>
<path d="M212.69 87.988C213.685 87.988 214.492 87.1811 214.492 86.1859C214.492 85.1906 213.685 84.3838 212.69 84.3838C211.695 84.3838 210.888 85.1906 210.888 86.1859C210.888 87.1811 211.695 87.988 212.69 87.988Z" fill="#D36D29"/>
<path d="M227.271 88.862C228.266 88.862 229.073 88.0552 229.073 87.0599C229.073 86.0646 228.266 85.2578 227.271 85.2578C226.276 85.2578 225.469 86.0646 225.469 87.0599C225.469 88.0552 226.276 88.862 227.271 88.862Z" fill="#D36D29"/>
<path d="M215.829 81.5084C215.881 80.6354 215.337 79.8928 214.614 79.8498C213.892 79.8068 213.264 80.4797 213.212 81.3528C213.16 82.2258 213.704 82.9684 214.426 83.0114C215.149 83.0544 215.777 82.3815 215.829 81.5084Z" fill="#36344C"/>
<path d="M225.659 82.4577C225.711 81.5846 225.167 80.842 224.445 80.799C223.722 80.7561 223.094 81.429 223.042 82.302C222.99 83.1751 223.534 83.9177 224.256 83.9606C224.979 84.0036 225.607 83.3307 225.659 82.4577Z" fill="#36344C"/>
<path d="M216.13 77.7773C216.021 77.5589 215.912 77.3404 215.693 77.2312C215.639 77.1766 215.529 77.1766 215.475 77.122C215.311 77.0674 215.147 77.0674 214.983 77.122L212.908 77.5589C212.69 77.6135 212.471 77.8319 212.362 77.9957C212.253 78.2142 212.198 78.4872 212.308 78.7057C212.417 78.9241 212.526 79.1425 212.744 79.2517C212.799 79.3064 212.908 79.3064 212.963 79.361C213.127 79.4156 213.291 79.4156 213.454 79.361L215.529 78.9241C215.748 78.8695 215.966 78.6511 216.076 78.4872C216.13 78.2688 216.185 77.9957 216.13 77.7773Z" fill="#36344C"/>
<path d="M222.955 78.2141C223.064 77.9956 223.228 77.8318 223.446 77.7226C223.501 77.7226 223.61 77.668 223.665 77.668C223.829 77.668 223.993 77.668 224.156 77.7226L226.177 78.3779C226.395 78.4325 226.559 78.7055 226.668 78.8694C226.778 79.0878 226.778 79.3608 226.668 79.5793C226.559 79.7977 226.395 79.9615 226.177 80.0707C226.122 80.0707 226.013 80.1254 225.958 80.1254C225.795 80.1254 225.631 80.1254 225.467 80.0707L223.446 79.4154C223.228 79.3608 223.064 79.0878 222.955 78.924C222.846 78.7055 222.846 78.3779 222.955 78.2141Z" fill="#36344C"/>
<path d="M225.851 97.9284C225.851 97.9284 223.448 104.754 210.561 102.625L211.27 98.9113L211.762 96.3447C213.619 98.3106 216.185 99.6212 219.079 99.7851C221.537 100.003 223.94 99.239 225.851 97.9284Z" fill="#D36D29"/>
<path d="M224.266 89.5725C223.338 90.8831 221.809 91.6477 220.225 91.7023C219.897 91.7023 219.952 92.1938 220.28 92.1938C221.972 92.1391 223.665 91.2654 224.648 89.9002C224.812 89.6272 224.43 89.3541 224.266 89.5725Z" fill="#36344C"/>
<path d="M210.832 101.04L210.286 103.77L205.481 104.699L188.934 214.189C169.166 212.769 160.756 200.919 160.756 200.919L168.62 136.754C168.62 136.754 138.094 113.873 134.981 103.77C131.868 93.6678 139.95 65.1621 139.95 65.1621L142.408 65.7628L153.712 68.5478L155.241 68.9301V92.3026L196.634 102.842C204.006 99.6747 210.832 101.04 210.832 101.04Z" fill="#6BB2AB"/>
<path d="M226.068 100.875C226.068 100.875 232.021 100.602 236.499 105.954C236.499 105.954 248.786 108.684 251.079 116.766C253.373 124.903 265.823 206.379 265.823 206.379C265.823 206.379 264.622 214.843 254.574 215.826L248.895 207.307L249.168 211.239C249.168 211.239 241.741 218.775 232.785 217.574L226.287 104.316L226.068 100.875Z" fill="#6BB2AB"/>
<path d="M196.96 126.979C196.523 122.174 196.305 117.368 196.359 112.508C196.359 109.778 196.469 106.992 196.687 104.262C196.687 103.934 196.25 103.88 196.196 104.207C195.868 109.068 195.813 113.873 195.977 118.733C196.141 123.593 196.578 128.454 197.233 133.259C197.615 135.935 198.052 138.665 198.598 141.341C198.653 141.669 199.144 141.614 199.09 141.287C198.107 136.536 197.397 131.785 196.96 126.979Z" fill="#389688"/>
<path d="M236.826 106.937C236.389 111.306 235.733 115.674 234.86 119.988C233.986 124.302 232.894 128.616 231.583 132.821C230.819 135.224 230 137.572 229.126 139.866C229.017 140.139 229.453 140.357 229.563 140.084C231.146 135.934 232.512 131.729 233.604 127.415C234.75 123.156 235.624 118.787 236.334 114.418C236.716 111.961 237.044 109.449 237.262 106.937C237.317 106.718 236.88 106.664 236.826 106.937Z" fill="#389688"/>
<path d="M167.473 119.663C167.309 118.189 167.146 116.714 167.036 115.24C166.982 114.912 166.545 114.967 166.545 115.294C167.036 120.482 167.692 125.725 168.511 130.858C168.729 132.332 169.002 133.752 169.221 135.226C169.275 135.554 169.767 135.499 169.712 135.172C168.784 130.039 168.019 124.851 167.473 119.663Z" fill="#389688"/>
<path d="M167.529 131.73C166.164 127.744 164.744 123.703 163.379 119.716C163.27 119.443 162.833 119.607 162.942 119.88C164.307 123.867 165.727 127.908 167.092 131.894C167.147 132.222 167.584 132.058 167.529 131.73Z" fill="#389688"/>
<path d="M247.258 180.334C246.711 172.197 246.111 164.061 245.455 155.979C245.073 151.391 244.636 146.804 244.199 142.217C244.145 141.89 243.708 141.944 243.708 142.272C244.527 150.408 245.237 158.6 245.838 166.736C246.438 174.873 246.985 183.01 247.421 191.092C247.694 195.679 247.913 200.321 248.077 204.908C248.077 205.235 248.568 205.181 248.568 204.853C248.186 196.662 247.749 188.471 247.258 180.334Z" fill="#389688"/>
<path d="M187.951 181.204C186.586 184.208 184.839 187.047 182.763 189.614C180.743 192.18 178.395 194.529 175.828 196.549C174.354 197.696 172.825 198.733 171.241 199.716C170.968 199.88 171.241 200.262 171.514 200.099C174.354 198.406 177.03 196.385 179.432 194.092C181.835 191.798 183.965 189.177 185.712 186.337C186.695 184.754 187.624 183.115 188.388 181.423C188.552 181.095 188.115 180.876 187.951 181.204Z" fill="#389688"/>
<path d="M244.854 205.449C240.976 200.862 238.028 195.51 236.28 189.776C235.789 188.138 235.406 186.5 235.079 184.807C235.024 184.479 234.533 184.534 234.587 184.862C235.679 190.814 237.973 196.548 241.304 201.626C242.232 203.046 243.27 204.412 244.417 205.722C244.635 205.995 245.017 205.668 244.854 205.449Z" fill="#389688"/>
<path d="M193.96 122.337C190.192 128.671 187.571 135.661 186.151 142.924C185.987 143.852 187.407 144.071 187.571 143.143C188.99 136.043 191.612 129.163 195.27 122.937C195.817 122.118 194.451 121.518 193.96 122.337Z" fill="#F4E9DC"/>
<path d="M236.388 128.127C236.115 127.198 234.75 127.745 235.023 128.673C236.989 135.335 237.535 142.38 236.771 149.26C236.661 150.189 238.136 150.407 238.19 149.479C239.064 142.325 238.409 135.062 236.388 128.127Z" fill="#F4E9DC"/>
<path d="M197.072 141.233C196.034 150.571 194.942 159.854 193.795 169.192C192.649 178.421 191.393 187.705 190.082 196.933C189.317 202.121 188.553 207.309 187.788 212.442C187.734 212.77 188.225 212.825 188.28 212.497C189.7 203.213 191.01 193.93 192.266 184.647C193.522 175.418 194.724 166.134 195.816 156.905C196.417 151.718 197.017 146.53 197.618 141.342C197.563 140.96 197.072 140.905 197.072 141.233Z" fill="#F4E9DC"/>
<path d="M232.347 186.392C231.692 176.672 231.31 166.897 231.146 157.177C231.037 151.661 231.037 146.2 231.037 140.685C231.037 140.357 230.545 140.412 230.545 140.74C230.491 150.515 230.6 160.235 230.982 170.01C231.365 179.73 231.965 189.505 232.784 199.225C233.276 204.686 233.767 210.147 234.423 215.608C234.477 215.936 234.969 215.881 234.914 215.553C233.822 205.833 233.003 196.113 232.347 186.392Z" fill="#F4E9DC"/>
</g>
<defs>
<filter id="filter0_d_11768_7260" x="0.936762" y="-6.53675" width="384.346" height="273.714" filterUnits="userSpaceOnUse" color-interpolation-filters="sRGB">
<feFlood flood-opacity="0" result="BackgroundImageFix"/>
<feColorMatrix in="SourceAlpha" type="matrix" values="0 0 0 0 0 0 0 0 0 0 0 0 0 0 0 0 0 0 127 0" result="hardAlpha"/>
<feOffset dy="-11.4315"/>
<feGaussianBlur stdDeviation="11.4315"/>
<feComposite in2="hardAlpha" operator="out"/>
<feColorMatrix type="matrix" values="0 0 0 0 0 0 0 0 0 0 0 0 0 0 0 0 0 0 0.15 0"/>
<feBlend mode="normal" in2="BackgroundImageFix" result="effect1_dropShadow_11768_7260"/>
<feBlend mode="normal" in="SourceGraphic" in2="effect1_dropShadow_11768_7260" result="shape"/>
</filter>
</defs>
</svg>
