<svg xmlns="http://www.w3.org/2000/svg" fill="none" viewBox="0 0 24 24">
    <path
        fill="#000"
        fill-rule="evenodd"
        d="M23 2H1a1 1 0 0 0-1 1v18a1 1 0 0 0 1 1h22a1 1 0 0 0 1-1V3a1 1 0 0 0-1-1Zm-1 18H2V4h20v16ZM12 9.71a1.71 1.71 0 1 1 0 3.42 1.71 1.71 0 0 1 0-3.42Zm-6 1.58a1.29 1.29 0 1 1 2.58 0 1.29 1.29 0 0 1-2.58 0Zm10 0a1.29 1.29 0 1 1 2.58 0 1.29 1.29 0 0 1-2.58 0ZM20.29 15.14v.86H3.71v-.86c0-.94 1.55-1.71 3-1.71.55 0 1.11.11 1.6.3.75-.69 2.1-1.16 3.4-1.16s2.65.47 3.4 1.16c.49-.19 1.05-.3 1.6-.3 1.45 0 3 .77 3 1.71Z"
        clip-rule="evenodd"
    />
</svg>