<svg width="24" height="24" viewBox="0 0 24 24" fill="none" xmlns="http://www.w3.org/2000/svg">
<path d="M2 17V15.6875C2 15.0903 2.30556 14.6042 2.91667 14.2292C3.52778 13.8542 4.33334 13.6667 5.33335 13.6667C5.5139 13.6667 5.68752 13.6703 5.85418 13.6775C6.02085 13.6847 6.18057 13.702 6.33335 13.7292C6.13891 14.0209 5.99307 14.3264 5.89585 14.6459C5.79863 14.9653 5.75002 15.2986 5.75002 15.6459V17H2ZM7.00002 17V15.6459C7.00002 15.2014 7.12169 14.795 7.36502 14.4267C7.60836 14.0584 7.95197 13.7356 8.39586 13.4584C8.84031 13.1806 9.3717 12.9722 9.99003 12.8334C10.6084 12.6945 11.2784 12.625 12 12.625C12.7362 12.625 13.4134 12.6945 14.0317 12.8334C14.6501 12.9722 15.1812 13.1806 15.6251 13.4584C16.0695 13.7361 16.4098 14.0592 16.6459 14.4275C16.882 14.7959 17.0001 15.202 17.0001 15.6459V17H7.00002ZM18.2501 17V15.6459C18.2501 15.2848 18.2051 14.9445 18.1151 14.625C18.0251 14.3056 17.8895 14.007 17.7084 13.7292C17.8612 13.7014 18.0176 13.6842 18.1776 13.6775C18.3376 13.6709 18.5006 13.6673 18.6667 13.6667C19.6667 13.6667 20.4723 13.8509 21.0834 14.2192C21.6945 14.5875 22.0001 15.077 22.0001 15.6875V17H18.2501ZM5.33335 12.8334C4.87501 12.8334 4.48279 12.6703 4.15668 12.3442C3.83056 12.0181 3.66723 11.6256 3.66667 11.1667C3.66667 10.6945 3.83001 10.2986 4.15668 9.97918C4.48334 9.65973 4.87557 9.50001 5.33335 9.50001C5.80557 9.50001 6.20141 9.65973 6.52085 9.97918C6.8403 10.2986 7.00002 10.6945 7.00002 11.1667C7.00002 11.625 6.8403 12.0175 6.52085 12.3442C6.20141 12.6709 5.80557 12.8339 5.33335 12.8334ZM18.6667 12.8334C18.2084 12.8334 17.8162 12.6703 17.4901 12.3442C17.164 12.0181 17.0006 11.6256 17.0001 11.1667C17.0001 10.6945 17.1634 10.2986 17.4901 9.97918C17.8167 9.65973 18.209 9.50001 18.6667 9.50001C19.139 9.50001 19.5348 9.65973 19.8542 9.97918C20.1737 10.2986 20.3334 10.6945 20.3334 11.1667C20.3334 11.625 20.1737 12.0175 19.8542 12.3442C19.5348 12.6709 19.139 12.8339 18.6667 12.8334ZM12 12C11.3056 12 10.7153 11.757 10.2292 11.2709C9.74309 10.7847 9.50003 10.1945 9.50003 9.50001C9.50003 8.79167 9.74309 8.19806 10.2292 7.71917C10.7153 7.24028 11.3056 7.00056 12 7C12.7084 7 13.3023 7.23972 13.7817 7.71917C14.2612 8.19862 14.5006 8.79223 14.5001 9.50001C14.5001 10.1945 14.2606 10.7847 13.7817 11.2709C13.3028 11.757 12.7089 12 12 12Z" fill="white"/>
</svg>