<svg width="100" height="100" viewBox="0 0 100 100" fill="none" xmlns="http://www.w3.org/2000/svg">
<path opacity="0.3" d="M22.2065 11.4395L40.5446 31.8289C43.4365 34.8759 45.0488 38.9165 45.0488 43.1173V90.7729L22.188 74.8074L22.2065 11.4395Z" fill="#787DFF"/>
<path opacity="0.5" d="M7.96419 8.59375L38.1838 30.1139C40.1689 31.498 41.8157 33.3127 43.0012 35.4225C44.1866 37.5323 44.88 39.8827 45.0297 42.2981C45.0297 42.5576 45.0297 42.8233 45.0297 43.0828V90.7384L7.95801 71.2016L7.96419 8.59375Z" fill="#787DFF"/>
<path d="M45.0483 91.2404L11.6467 80.5514C8.4343 79.558 5.59996 77.6112 3.51982 74.9694C1.43967 72.3275 0.212097 69.1156 0 65.7598C0 65.4756 0 65.1914 0 64.9071V16.4668L36.287 30.4799C38.7098 31.3836 40.8216 32.9649 42.3706 35.0354C43.9196 37.1059 44.8406 39.5782 45.0236 42.1575C45.0236 42.4108 45.0236 42.6641 45.0236 42.9175L45.0483 91.2404Z" fill="#787DFF"/>
<path opacity="0.3" d="M77.794 11.4395L59.4559 31.8289C56.5713 34.8681 54.9597 38.8962 54.9517 43.0864V90.742L77.8126 74.7765L77.794 11.4395Z" fill="#FD739C"/>
<path opacity="0.5" d="M92.0367 8.59375L61.8171 30.1139C59.8319 31.498 58.1851 33.3127 56.9997 35.4225C55.8143 37.5323 55.1208 39.8827 54.9712 42.2981C54.9712 42.5576 54.9712 42.8233 54.9712 43.0828V90.7384L92.0429 71.2016L92.0367 8.59375Z" fill="#FD739C"/>
<path d="M54.9517 91.2404L88.3471 80.5514C94.8841 78.4568 99.6663 72.6119 99.9999 65.7598C99.9999 65.4756 99.9999 65.1914 99.9999 64.9071V16.4668L63.7253 30.4799C61.3018 31.3833 59.1891 32.9644 57.639 35.0348C56.0889 37.1052 55.1668 39.5777 54.9826 42.1575C54.9826 42.4129 54.9826 42.6662 54.9826 42.9175L54.9517 91.2404Z" fill="#FD739C"/>
</svg>
