<svg width="266" height="175" viewBox="0 0 266 175" fill="none" xmlns="http://www.w3.org/2000/svg">
<g clip-path="url(#clip0_6528_2854)">
<path d="M55.3297 104.931C43.32 93.1358 38.2477 80.8304 41.0467 70.2818C44.6387 56.745 60.5963 47.3854 84.8276 44.603L84.9171 45.3795C61.0231 48.123 45.309 57.2725 41.804 70.4818C39.08 80.7476 44.0787 92.7842 55.8793 104.374L55.3297 104.931Z" fill="#F0F0F0"/>
<path d="M171.204 146.801C156.215 146.801 139.927 144.579 123.749 140.306C103.742 135.021 85.3975 127.045 70.6992 117.239L71.1345 116.59C85.762 126.348 104.025 134.288 123.949 139.55C141.954 144.306 160.094 146.51 176.402 145.928L176.43 146.709C174.708 146.771 172.966 146.802 171.204 146.801Z" fill="#F0F0F0"/>
<path d="M205.589 141.887L205.338 141.147C218.743 136.625 227.128 129.34 229.585 120.08C232.708 108.309 225.922 94.6485 210.477 81.6159C194.953 68.5171 172.567 57.6485 147.441 51.0123L147.642 50.2568C172.877 56.9221 195.372 67.8471 210.983 81.0193C226.672 94.2575 233.547 108.201 230.342 120.28C227.814 129.806 219.255 137.277 205.589 141.887Z" fill="#F0F0F0"/>
<path d="M82.4939 147.128C53.0418 134.096 30.3468 117.188 18.5898 99.5192L19.2423 99.0869C30.918 116.633 53.4939 133.441 82.8113 146.414L82.4939 147.128Z" fill="#F0F0F0"/>
<path d="M186.047 169.705C183.009 169.705 179.919 169.637 176.777 169.502L176.811 168.721C200.256 169.734 220.942 166.935 236.636 160.625L236.929 161.349C223.238 166.853 205.788 169.705 186.047 169.705Z" fill="#F0F0F0"/>
<path d="M168.959 45.304C164.091 43.7228 159.084 42.2505 154.077 40.928C125.263 33.3175 96.9385 30.6154 72.1647 33.1153L72.0859 32.3377C96.9521 29.8296 125.373 32.5382 154.277 40.1725C159.298 41.4988 164.32 42.9753 169.201 44.5611L168.959 45.304Z" fill="#F0F0F0"/>
<path d="M36.9215 106.104C24.9118 94.3082 19.8395 82.0027 22.6385 71.4542C26.2305 57.9174 42.1881 48.5578 66.4194 45.7754L66.5089 46.5519C42.6149 49.2954 26.9008 58.4449 23.3958 71.6541C20.6718 81.9199 25.6704 93.9566 37.471 105.547L36.9215 106.104Z" fill="#F0F0F0"/>
<path d="M152.798 147.973C137.809 147.973 121.521 145.751 105.342 141.478C85.3354 136.193 66.9912 128.217 52.293 118.411L52.7282 117.762C67.3557 127.52 85.6186 135.46 105.543 140.722C123.548 145.478 141.688 147.682 157.996 147.1L158.024 147.881C156.302 147.943 154.56 147.973 152.798 147.973Z" fill="#F0F0F0"/>
<path d="M187.18 143.059L186.929 142.319C200.335 137.797 208.719 130.512 211.177 121.252C214.3 109.481 207.514 95.8203 192.069 82.7878C176.545 69.689 154.159 58.8203 129.033 52.1842L129.234 51.4287C154.469 58.094 176.964 69.019 192.574 82.1912C208.264 95.4294 215.139 109.373 211.934 121.452C209.406 130.978 200.847 138.449 187.18 143.059Z" fill="#F0F0F0"/>
<path d="M64.0876 148.3C34.6356 135.268 11.9406 118.36 0.183594 100.691L0.836065 100.259C12.5118 117.805 35.0877 134.613 64.4051 147.585L64.0876 148.3Z" fill="#F0F0F0"/>
<path d="M167.64 170.877C164.602 170.877 161.513 170.809 158.371 170.674L158.405 169.893C181.85 170.906 202.535 168.107 218.23 161.797L218.523 162.522C204.832 168.026 187.382 170.877 167.64 170.877Z" fill="#F0F0F0"/>
<path d="M150.551 46.4764C145.683 44.8952 140.676 43.4229 135.669 42.1003C106.855 34.4899 78.5303 31.7878 53.7565 34.2877L53.6777 33.51C78.5439 31.002 106.965 33.7105 135.869 41.3448C140.89 42.6712 145.911 44.1477 150.793 45.7335L150.551 46.4764Z" fill="#F0F0F0"/>
<path d="M13.5356 85.1726C19.1642 78.8764 28.1429 75.039 36.2796 77.3361C28.7731 82.636 23.3876 90.414 21.0759 99.294C20.1968 102.722 19.5767 106.626 16.7193 108.722C14.9414 110.026 12.5856 110.337 10.3991 110.04C8.21252 109.743 6.14505 108.895 4.10547 108.054L3.55664 108.102C5.13457 99.8133 7.90692 91.4689 13.5356 85.1726Z" fill="#F2F2F2"/>
<path d="M36.2527 77.5113C29.4499 79.1546 23.339 82.8947 18.7881 88.2003C17.788 89.3252 16.9719 90.6002 16.3699 91.9786C15.8269 93.3402 15.6592 94.822 15.8844 96.2702C16.0671 97.6246 16.4112 98.9889 16.2608 100.364C16.1733 101.067 15.9379 101.743 15.57 102.349C15.2022 102.955 14.7101 103.476 14.1262 103.878C12.6974 104.919 10.9788 105.386 9.28236 105.784C7.39875 106.226 5.43526 106.655 3.89982 107.904C3.71378 108.056 3.48931 107.759 3.67507 107.608C6.34647 105.435 10.0591 105.714 13.0148 104.136C14.3939 103.399 15.559 102.243 15.8423 100.658C16.09 99.2712 15.7363 97.864 15.5394 96.4942C15.299 95.0847 15.4082 93.638 15.8574 92.2803C16.3872 90.8758 17.1527 89.5715 18.1211 88.4232C20.26 85.8034 22.7984 83.5354 25.6434 81.7023C28.8788 79.5923 32.4521 78.0499 36.2087 77.142C36.4413 77.0859 36.4838 77.4556 36.2527 77.5113Z" fill="white"/>
<path d="M20.1533 86.4058C19.3647 85.5232 18.9163 84.3896 18.8881 83.2076C18.8599 82.0255 19.2538 80.872 19.9994 79.9529C20.1509 79.7675 20.4469 79.9936 20.2951 80.1793C19.5993 81.0339 19.2325 82.1085 19.261 83.2091C19.2895 84.3098 19.7114 85.364 20.4506 86.1816C20.611 86.3594 20.3128 86.5826 20.1533 86.4058Z" fill="white"/>
<path d="M15.7012 95.5956C18.1185 95.7557 20.5075 95.001 22.3918 93.4819C22.5784 93.3313 22.8029 93.6281 22.6165 93.7786C20.6527 95.3557 18.165 96.1361 15.6499 95.9639C15.4102 95.9473 15.4628 95.5791 15.7012 95.5956Z" fill="white"/>
<path d="M28.9635 80.0783C29.1973 80.4833 29.5282 80.8239 29.9266 81.0697C30.3249 81.3155 30.7783 81.4588 31.2458 81.4866C31.4856 81.5001 31.4328 81.8683 31.1945 81.8549C30.6781 81.8218 30.1776 81.663 29.7369 81.3924C29.2962 81.1218 28.9285 80.7476 28.6662 80.3025C28.6379 80.2627 28.626 80.2135 28.6327 80.1652C28.6394 80.1168 28.6644 80.0728 28.7025 80.0421C28.742 80.0126 28.7916 79.9999 28.8404 80.0067C28.8893 80.0134 28.9335 80.0392 28.9635 80.0783Z" fill="white"/>
<path d="M47.829 103.474C47.679 103.469 47.529 103.465 47.3771 103.464C45.3604 103.417 43.3433 103.535 41.3457 103.815C41.1909 103.834 41.0343 103.856 40.8804 103.879C36.0749 104.604 31.4461 106.214 27.2293 108.625C25.5523 109.586 23.9509 110.672 22.4391 111.876C20.3514 113.538 18.2203 115.506 15.7761 116.357C15.5221 116.449 15.2627 116.525 14.9993 116.585L3.65646 108.766C3.63962 108.735 3.62088 108.707 3.60391 108.676L3.13672 108.385C3.21034 108.317 3.28816 108.249 3.36178 108.182C3.40432 108.142 3.44941 108.105 3.49194 108.065C3.5211 108.04 3.55041 108.014 3.57525 107.989C3.58493 107.981 3.59473 107.972 3.60263 107.966C3.62747 107.941 3.65319 107.921 3.67625 107.899C4.11015 107.515 4.54751 107.134 4.98833 106.755C4.99012 106.752 4.99012 106.752 4.99444 106.751C8.36063 103.873 11.9973 101.249 15.9175 99.2594C16.0354 99.1996 16.1551 99.1371 16.2782 99.0809C18.0502 98.1939 19.8919 97.4529 21.785 96.8652C22.8226 96.5468 23.8757 96.281 24.9402 96.0687C27.6919 95.5257 30.512 95.4179 33.2973 95.7492C38.8496 96.4105 44.1281 98.8361 47.5693 103.142C47.6572 103.252 47.7428 103.361 47.829 103.474Z" fill="#F2F2F2"/>
<path d="M47.7065 103.6C41.2831 100.826 34.1469 100.141 27.3115 101.644C25.8342 101.941 24.4132 102.469 23.1007 103.208C21.8454 103.969 20.8174 105.051 20.1232 106.343C19.4518 107.534 18.9033 108.83 17.9533 109.838C17.4593 110.346 16.8632 110.745 16.204 111.008C15.5448 111.27 14.8374 111.391 14.1282 111.361C12.3591 111.334 10.7054 110.675 9.11063 109.974C7.33996 109.195 5.51313 108.358 3.5335 108.433C3.29364 108.442 3.29355 108.07 3.53305 108.061C6.97726 107.931 9.77325 110.384 13.0856 110.899C14.6312 111.14 16.2588 110.917 17.4419 109.821C18.4764 108.863 19.0432 107.527 19.7126 106.315C20.3712 105.045 21.3315 103.955 22.5094 103.141C23.78 102.338 25.1783 101.756 26.6444 101.421C29.9332 100.614 33.3286 100.328 36.7064 100.573C40.563 100.832 44.3469 101.747 47.8942 103.279C48.1137 103.373 47.9246 103.694 47.7065 103.6Z" fill="white"/>
<path d="M29.4816 101.031C29.3846 99.8522 29.7106 98.6778 30.4014 97.7171C31.0923 96.7563 32.1029 96.0719 33.2528 95.7859C33.4857 95.7289 33.5855 96.0872 33.3523 96.1444C32.281 96.4087 31.3397 97.0464 30.6982 97.9423C30.0568 98.8382 29.7575 99.9334 29.8543 101.03C29.8751 101.269 29.5023 101.268 29.4816 101.031Z" fill="white"/>
<path d="M20.3808 105.694C22.2142 107.274 24.5771 108.106 26.9984 108.025C27.2382 108.017 27.2384 108.389 26.9988 108.397C24.479 108.477 22.0218 107.606 20.1176 105.957C19.9362 105.8 20.2004 105.538 20.3808 105.694Z" fill="white"/>
<path d="M40.3329 101.27C40.2752 101.734 40.3338 102.205 40.5036 102.64C40.6733 103.076 40.9488 103.462 41.3054 103.766C41.4887 103.92 41.2242 104.183 41.0421 104.029C40.6498 103.692 40.346 103.265 40.1574 102.784C39.9688 102.303 39.9011 101.784 39.9602 101.271C39.9617 101.222 39.9818 101.175 40.0163 101.141C40.0509 101.106 40.0974 101.086 40.1463 101.084C40.1956 101.085 40.2429 101.104 40.2779 101.139C40.3128 101.174 40.3326 101.221 40.3329 101.27Z" fill="white"/>
<path d="M234.086 136.787C230.905 128.969 223.742 122.344 215.305 121.779C220.589 129.288 223.041 138.419 222.227 147.558C221.9 151.081 221.169 154.966 223.154 157.898C224.389 159.723 226.503 160.806 228.662 161.259C230.822 161.713 233.055 161.607 235.259 161.499L235.76 161.728C237.066 153.393 237.266 144.604 234.086 136.787Z" fill="#F2F2F2"/>
<path d="M215.27 121.953C221.123 125.782 225.619 131.353 228.117 137.876C228.68 139.271 229.019 140.746 229.122 142.246C229.175 143.71 228.834 145.162 228.134 146.45C227.505 147.665 226.722 148.834 226.4 150.18C226.246 150.871 226.24 151.587 226.382 152.281C226.524 152.975 226.812 153.631 227.227 154.206C228.222 155.665 229.683 156.681 231.147 157.625C232.772 158.673 234.476 159.735 235.502 161.426C235.626 161.631 235.937 161.427 235.813 161.222C234.029 158.28 230.439 157.298 228.187 154.82C227.136 153.664 226.428 152.185 226.695 150.597C226.929 149.208 227.736 148.001 228.383 146.777C229.084 145.53 229.469 144.131 229.503 142.702C229.477 141.201 229.196 139.716 228.671 138.31C227.539 135.125 225.912 132.138 223.85 129.458C221.514 126.385 218.668 123.734 215.436 121.62C215.235 121.489 215.071 121.823 215.27 121.953Z" fill="white"/>
<path d="M227.436 135.729C228.476 135.162 229.28 134.244 229.705 133.141C230.129 132.037 230.147 130.818 229.754 129.703C229.674 129.477 229.319 129.591 229.4 129.817C229.767 130.855 229.751 131.99 229.353 133.017C228.955 134.044 228.203 134.896 227.231 135.418C227.02 135.531 227.226 135.842 227.436 135.729Z" fill="white"/>
<path d="M228.531 145.877C226.201 145.217 224.205 143.705 222.942 141.642C222.817 141.438 222.506 141.642 222.631 141.846C223.949 143.99 226.029 145.559 228.456 146.241C228.687 146.305 228.762 145.941 228.531 145.877Z" fill="white"/>
<path d="M221.27 126.815C220.914 127.118 220.487 127.328 220.029 127.426C219.571 127.524 219.096 127.506 218.646 127.376C218.416 127.308 218.342 127.673 218.571 127.74C219.068 127.882 219.593 127.9 220.099 127.793C220.605 127.686 221.078 127.457 221.475 127.126C221.515 127.098 221.543 127.055 221.553 127.008C221.563 126.96 221.554 126.91 221.528 126.868C221.501 126.827 221.459 126.799 221.41 126.789C221.362 126.779 221.312 126.788 221.27 126.815Z" fill="white"/>
<path d="M195.621 142.523C195.764 142.569 195.906 142.616 196.05 142.665C197.965 143.298 199.825 144.085 201.612 145.018C201.752 145.088 201.892 145.161 202.029 145.235C206.31 147.529 210.128 150.597 213.287 154.282C214.543 155.749 215.685 157.31 216.703 158.95C218.11 161.216 219.454 163.784 221.469 165.405C221.677 165.577 221.896 165.736 222.124 165.88L235.441 162.32C235.467 162.296 235.494 162.276 235.521 162.253L236.059 162.135C236.012 162.047 235.962 161.956 235.916 161.868C235.889 161.817 235.859 161.766 235.832 161.715C235.813 161.681 235.794 161.647 235.779 161.615C235.773 161.604 235.767 161.593 235.761 161.584C235.746 161.553 235.729 161.525 235.715 161.496C235.435 160.989 235.152 160.483 234.864 159.979C234.863 159.976 234.863 159.976 234.86 159.973C232.659 156.133 230.118 152.443 227.096 149.255C227.005 149.159 226.913 149.06 226.816 148.966C225.446 147.536 223.961 146.22 222.376 145.032C221.506 144.384 220.604 143.781 219.673 143.224C217.264 141.79 214.644 140.743 211.91 140.121C206.458 138.882 200.669 139.396 195.977 142.298C195.857 142.372 195.74 142.446 195.621 142.523Z" fill="#F2F2F2"/>
<path d="M195.697 142.684C202.681 142.225 209.633 143.973 215.564 147.681C216.856 148.456 218.016 149.43 219.003 150.566C219.929 151.703 220.533 153.068 220.752 154.517C220.983 155.864 221.063 157.268 221.618 158.536C221.912 159.181 222.339 159.756 222.871 160.224C223.404 160.693 224.029 161.044 224.707 161.254C226.382 161.821 228.162 161.755 229.9 161.629C231.83 161.49 233.833 161.314 235.672 162.048C235.895 162.137 236.02 161.787 235.798 161.698C232.598 160.421 229.138 161.793 225.845 161.168C224.308 160.876 222.85 160.121 222.105 158.692C221.454 157.442 221.37 155.994 221.148 154.628C220.955 153.211 220.418 151.863 219.583 150.701C218.657 149.519 217.536 148.502 216.268 147.695C213.442 145.832 210.341 144.424 207.077 143.522C203.357 142.473 199.485 142.065 195.628 142.318C195.39 142.334 195.46 142.7 195.697 142.684Z" fill="white"/>
<path d="M213.724 146.375C214.212 145.297 214.301 144.082 213.974 142.946C213.647 141.809 212.926 140.826 211.939 140.171C211.739 140.039 211.524 140.343 211.725 140.475C212.645 141.083 213.316 141.999 213.619 143.058C213.921 144.117 213.834 145.249 213.373 146.249C213.273 146.467 213.625 146.591 213.724 146.375Z" fill="white"/>
<path d="M220.724 153.818C218.465 154.691 215.959 154.683 213.706 153.795C213.482 153.707 213.357 154.057 213.58 154.145C215.926 155.065 218.534 155.068 220.883 154.154C221.107 154.067 220.946 153.731 220.724 153.818Z" fill="white"/>
<path d="M203.422 142.961C203.32 143.417 203.106 143.841 202.799 144.194C202.493 144.547 202.103 144.819 201.665 144.985C201.44 145.069 201.601 145.405 201.824 145.321C202.307 145.136 202.737 144.835 203.077 144.445C203.416 144.056 203.655 143.589 203.772 143.086C203.787 143.04 203.784 142.989 203.763 142.945C203.742 142.901 203.705 142.866 203.66 142.849C203.613 142.832 203.562 142.835 203.517 142.856C203.473 142.877 203.438 142.915 203.422 142.961Z" fill="white"/>
<path d="M172.389 163.406C174.119 163.406 175.522 162.006 175.522 160.28C175.522 158.554 174.119 157.154 172.389 157.154C170.659 157.154 169.256 158.554 169.256 160.28C169.256 162.006 170.659 163.406 172.389 163.406Z" fill="#FD6584"/>
<path d="M183.485 110.166C185.215 110.166 186.618 108.766 186.618 107.04C186.618 105.314 185.215 103.914 183.485 103.914C181.754 103.914 180.352 105.314 180.352 107.04C180.352 108.766 181.754 110.166 183.485 110.166Z" fill="#E6E6E6"/>
<path d="M125.188 23.4616C126.918 23.4616 128.321 22.0621 128.321 20.3358C128.321 18.6094 126.918 17.21 125.188 17.21C123.457 17.21 122.055 18.6094 122.055 20.3358C122.055 22.0621 123.457 23.4616 125.188 23.4616Z" fill="#E6E6E6"/>
<path d="M59.5332 140.242C59.5332 141.038 59.5595 141.833 59.6153 142.622C59.6744 143.565 59.7761 144.502 59.914 145.432C60.3772 148.563 61.2626 151.618 62.5462 154.512C62.6118 154.656 62.6774 154.8 62.7431 154.944L62.8416 155.16C62.8744 155.232 62.9105 155.304 62.9433 155.373C62.9892 155.468 63.0319 155.56 63.0779 155.652C63.1337 155.766 63.1894 155.881 63.2485 155.995C63.2551 156.008 63.2617 156.025 63.2715 156.041C63.3207 156.139 63.3667 156.234 63.4192 156.333C63.4288 156.354 63.4398 156.375 63.452 156.395C63.5078 156.506 63.5669 156.621 63.626 156.732C63.6916 156.85 63.754 156.971 63.8196 157.089C63.9771 157.381 64.1412 157.669 64.3086 157.957C64.3579 158.042 64.4071 158.127 64.4596 158.212C64.5056 158.291 64.5515 158.369 64.6007 158.448C64.6336 158.5 64.6664 158.556 64.6992 158.608C64.7517 158.697 64.8042 158.782 64.86 158.87C64.9815 159.064 65.1062 159.257 65.2276 159.45H65.2309C65.2867 159.538 65.3458 159.627 65.4048 159.712V159.715C65.5788 159.977 65.7593 160.239 65.9398 160.498L65.9411 160.498L65.9422 160.499L65.9429 160.5L65.9431 160.501C66.0875 160.711 66.2385 160.914 66.3862 161.117V161.12C66.4846 161.248 66.5798 161.379 66.6783 161.506C66.7571 161.611 66.8391 161.719 66.9212 161.824C66.9376 161.847 66.9573 161.867 66.9737 161.889V161.893C66.9966 161.922 67.0196 161.948 67.0426 161.978C67.3905 162.423 67.7493 162.859 68.1191 163.284L68.1782 163.353C68.1979 163.376 68.2209 163.399 68.2405 163.425C68.2734 163.461 68.3029 163.497 68.3357 163.533C68.3653 163.569 68.3981 163.605 68.4309 163.641C70.3585 165.808 72.5441 167.731 74.9392 169.368C75.2576 169.588 75.5825 169.801 75.9074 170.007C75.9895 170.059 76.0715 170.112 76.1536 170.161C76.1766 170.177 76.2028 170.194 76.2258 170.21C76.2717 170.236 76.3144 170.262 76.3604 170.292C76.403 170.318 76.4457 170.344 76.4916 170.37C76.6656 170.478 76.8428 170.583 77.0201 170.688C77.0627 170.714 77.1087 170.74 77.1546 170.767C77.1973 170.79 77.2432 170.816 77.2892 170.842C77.2892 170.845 77.2892 170.845 77.2925 170.845H77.2958V170.848H77.299C77.5189 170.976 77.7421 171.101 77.9686 171.222C78.09 171.287 78.2147 171.356 78.3394 171.418C78.6217 171.572 78.9072 171.719 79.1928 171.86C79.2945 171.909 79.3996 171.959 79.5013 172.011C79.5866 172.05 79.672 172.093 79.7573 172.132C79.7836 172.145 79.8065 172.155 79.8295 172.168C79.9017 172.201 79.9706 172.234 80.0428 172.266C80.1216 172.302 80.2004 172.338 80.2759 172.374C80.3645 172.414 80.4498 172.453 80.5384 172.489C80.8666 172.636 81.1981 172.777 81.5296 172.911C82.7176 173.397 83.9316 173.817 85.1661 174.169C85.2219 174.185 85.281 174.202 85.3401 174.218C85.8685 174.365 86.4002 174.5 86.9352 174.621C87.8706 174.837 88.8147 175.014 89.7676 175.151H89.7742C89.889 175.168 90.0006 175.184 90.1155 175.2C90.1253 175.2 90.1352 175.204 90.1483 175.204C90.1483 175.207 90.1483 175.207 90.1516 175.204C90.2763 175.22 90.4043 175.236 90.529 175.253C90.5375 175.255 90.5464 175.256 90.5553 175.256C90.6735 175.272 90.7949 175.285 90.913 175.298C91.041 175.312 91.169 175.325 91.297 175.338C91.3955 175.348 91.494 175.357 91.5924 175.367C91.6009 175.37 91.6098 175.371 91.6187 175.371C91.7073 175.377 91.7959 175.387 91.8845 175.393H91.8977C91.9731 175.4 92.0519 175.407 92.1274 175.413C93.0431 175.485 93.9621 175.518 94.8942 175.518C95.9018 175.518 96.9028 175.479 97.8907 175.393H97.9005C98.1139 175.374 98.3239 175.354 98.534 175.335C98.5898 175.328 98.6423 175.325 98.6981 175.318C98.7079 175.318 98.7211 175.315 98.7309 175.315C98.7473 175.312 98.7637 175.312 98.7834 175.308C98.7923 175.309 98.8012 175.308 98.8097 175.305C98.8819 175.298 98.9541 175.289 99.0296 175.282L99.2757 175.253C99.3578 175.243 99.4398 175.23 99.5219 175.22C99.5416 175.217 99.558 175.217 99.5777 175.213C99.6368 175.207 99.6958 175.197 99.7549 175.187C99.7845 175.184 99.814 175.181 99.8402 175.177C99.8993 175.168 99.9551 175.161 100.014 175.151H100.017C101.818 174.892 103.596 174.493 105.334 173.956C105.426 173.926 105.518 173.9 105.61 173.871C105.613 173.871 105.617 173.868 105.62 173.868C105.646 173.858 105.676 173.851 105.702 173.841C105.948 173.763 106.191 173.681 106.434 173.596C106.769 173.484 107.1 173.363 107.432 173.239C107.52 173.203 107.609 173.17 107.697 173.134C107.878 173.065 108.055 172.993 108.232 172.921C108.534 172.8 108.836 172.672 109.135 172.541C109.414 172.417 109.69 172.293 109.965 172.162C109.972 172.158 109.982 172.158 109.988 172.152C110.051 172.122 110.113 172.093 110.172 172.063H110.175C111.687 171.34 113.145 170.509 114.537 169.578C114.984 169.28 115.423 168.972 115.857 168.655C116.205 168.396 116.546 168.134 116.887 167.865C118.571 166.529 120.13 165.043 121.545 163.425V163.422C121.646 163.311 121.741 163.196 121.84 163.081C121.856 163.065 121.869 163.049 121.883 163.036C121.945 162.96 122.004 162.888 122.066 162.816V162.813C122.148 162.718 122.23 162.62 122.309 162.521C122.329 162.499 122.345 162.479 122.362 162.459V162.456C122.427 162.377 122.49 162.299 122.555 162.217C122.588 162.178 122.618 162.138 122.651 162.099V162.096C122.844 161.853 123.031 161.611 123.218 161.362C123.268 161.297 123.317 161.228 123.369 161.159C123.606 160.842 123.835 160.517 124.059 160.193V160.19C124.144 160.069 124.226 159.944 124.311 159.823C124.393 159.699 124.475 159.574 124.557 159.45C124.639 159.319 124.725 159.191 124.807 159.06L124.817 159.041C124.899 158.916 124.981 158.785 125.06 158.658C125.122 158.553 125.184 158.451 125.247 158.35C125.286 158.281 125.329 158.212 125.368 158.14C125.384 158.118 125.398 158.095 125.411 158.071C125.503 157.911 125.595 157.751 125.686 157.59C125.795 157.403 125.9 157.214 126.005 157.024C126.044 156.945 126.087 156.866 126.13 156.788C126.146 156.762 126.159 156.735 126.172 156.709C126.221 156.618 126.271 156.523 126.317 156.428C126.366 156.336 126.415 156.241 126.464 156.146C126.51 156.054 126.559 155.959 126.605 155.864C126.642 155.792 126.674 155.72 126.71 155.648C126.713 155.642 126.716 155.637 126.72 155.632C126.737 155.596 126.753 155.563 126.766 155.53C126.77 155.525 126.774 155.52 126.776 155.514C126.812 155.442 126.845 155.367 126.881 155.295C126.927 155.2 126.97 155.101 127.016 155.007C127.045 154.941 127.078 154.872 127.108 154.804C127.15 154.709 127.196 154.614 127.236 154.515C127.282 154.417 127.324 154.319 127.367 154.217C127.379 154.193 127.39 154.168 127.4 154.142C127.423 154.096 127.439 154.05 127.459 154.005C127.511 153.883 127.564 153.759 127.613 153.638C127.672 153.5 127.728 153.359 127.78 153.222C127.833 153.094 127.882 152.963 127.931 152.832L127.951 152.786C128.716 150.777 129.296 148.702 129.684 146.588V146.585C129.903 145.377 130.06 144.16 130.153 142.937C130.157 142.868 130.163 142.803 130.166 142.737C130.226 141.909 130.252 141.077 130.252 140.242C130.252 139.872 130.245 139.505 130.235 139.138C130.006 131.468 127.265 124.084 122.431 118.116C122.326 117.985 122.221 117.854 122.112 117.723C122.004 117.592 121.892 117.465 121.784 117.337C118.186 113.133 113.649 109.832 108.537 107.699C103.426 105.565 97.8834 104.66 92.357 105.057C86.8307 105.453 81.4749 107.139 76.7215 109.979C71.9681 112.819 67.9501 116.733 64.9913 121.407C64.8305 121.662 64.6697 121.921 64.5154 122.18C64.3579 122.442 64.2069 122.704 64.0559 122.969C61.0826 128.242 59.5247 134.192 59.5332 140.242Z" fill="#F2F2F2"/>
<path d="M93.4911 117.168C99.3055 118.656 105.264 119.514 111.263 119.727C112.17 119.776 113.079 119.77 113.986 119.709C115.978 119.541 117.684 118.917 119.584 118.575C120.498 118.412 121.515 118.292 122.435 118.115C122.222 117.852 122.006 117.592 121.786 117.336C119.803 117.503 117.789 118.05 115.782 118.304C112.37 118.737 108.548 118.254 105.962 117.063C104.707 116.485 103.746 115.764 102.496 115.183C102.326 115.096 102.141 115.04 101.952 115.017C101.591 115.006 101.235 115.098 100.925 115.283C98.8275 116.339 95.7819 117.198 92.955 116.725C92.7443 116.89 93.1446 117.077 93.4911 117.168Z" fill="white"/>
<path d="M80.9799 120.887C80.9541 120.882 80.9282 120.878 80.9023 120.874C81.0109 120.806 81.1132 120.729 81.2078 120.644L80.9799 120.887Z" fill="white"/>
<path d="M64.0566 122.971C65.2373 123.065 66.4242 123.135 67.6172 123.181C68.5243 123.23 69.4336 123.224 70.34 123.162C72.3319 122.994 74.0381 122.371 75.9383 122.029C77.6798 121.717 79.796 121.567 80.9017 120.873C78.0439 120.38 75.083 121.385 72.1362 121.758C69.7525 122.051 67.3362 121.932 64.9931 121.407C64.6668 121.919 64.3547 122.44 64.0566 122.971Z" fill="white"/>
<path d="M78.3379 171.418C78.6201 171.572 78.9057 171.719 79.1912 171.86C79.293 171.909 79.398 171.959 79.4997 172.011C79.5851 172.05 79.6704 172.093 79.7557 172.132C79.782 172.145 79.805 172.155 79.8279 172.168C79.9002 172.201 79.9691 172.234 80.0413 172.266C80.1201 172.302 80.1988 172.338 80.2743 172.374C80.3629 172.414 80.4483 172.453 80.5369 172.489C80.8651 172.636 81.1966 172.777 81.5281 172.911C82.716 173.397 83.9301 173.817 85.1646 174.169C85.2204 174.185 85.2795 174.202 85.3385 174.218C85.867 174.365 86.3987 174.5 86.9336 174.621C87.869 174.837 88.8132 175.014 89.7661 175.151H89.7726C89.8875 175.168 89.9991 175.184 90.1139 175.2C90.1238 175.2 90.1336 175.204 90.1468 175.204C90.1468 175.207 90.1468 175.207 90.15 175.204C90.2748 175.22 90.4028 175.236 90.5275 175.253C90.536 175.255 90.5449 175.256 90.5537 175.256C90.6719 175.272 90.7933 175.285 90.9115 175.298C91.0395 175.312 91.1675 175.325 91.2955 175.338C91.394 175.348 91.4924 175.357 91.5909 175.367C91.5993 175.37 91.6082 175.371 91.6171 175.371C91.7057 175.377 91.7944 175.387 91.883 175.393H91.8961C91.9716 175.4 92.0504 175.407 92.1259 175.413C93.0415 175.485 93.9605 175.518 94.8926 175.518C95.9002 175.518 96.9013 175.479 97.8892 175.393H97.899C98.1123 175.374 98.3224 175.354 98.5324 175.335C98.5882 175.328 98.6407 175.325 98.6965 175.318C98.7064 175.318 98.7195 175.315 98.7294 175.315C98.7458 175.312 98.7622 175.312 98.7819 175.308C98.7907 175.309 98.7996 175.308 98.8081 175.305C98.8803 175.298 98.9525 175.289 99.028 175.282L99.2742 175.253C99.3562 175.243 99.4383 175.23 99.5203 175.22C99.54 175.217 99.5564 175.217 99.5761 175.213C99.6352 175.207 99.6943 175.197 99.7534 175.187C99.7829 175.184 99.8124 175.181 99.8387 175.177C99.8978 175.168 99.9536 175.161 100.013 175.151H100.016C101.817 174.892 103.595 174.493 105.333 173.956C105.425 173.926 105.517 173.9 105.609 173.871C105.185 171.899 104.312 170.051 103.059 168.469C101.805 166.887 100.204 165.614 98.3782 164.748C98.8297 164.319 99.1418 163.765 99.2742 163.157C99.3594 162.765 99.3661 162.36 99.294 161.966C99.2219 161.571 99.0724 161.195 98.8541 160.858C98.4282 160.206 97.76 159.749 96.9964 159.588L92.1324 158.572C91.3494 158.42 90.5378 158.582 89.874 159.024C89.2103 159.465 88.748 160.15 88.5878 160.93C88.5382 161.169 88.5161 161.413 88.5221 161.657C83.8386 164.768 80.4679 167.993 78.3379 171.418Z" fill="#4584FF"/>
<path d="M92.7019 156.656C98.2985 156.656 102.835 152.129 102.835 146.546C102.835 140.962 98.2985 136.436 92.7019 136.436C87.1053 136.436 82.5684 140.962 82.5684 146.546C82.5684 152.129 87.1053 156.656 92.7019 156.656Z" fill="#FFB8B8"/>
<path d="M86.3834 155.263C85.3027 154.526 84.1992 153.111 83.4625 152.05C82.4863 150.656 81.8146 149.073 81.4909 147.403C81.1672 145.733 81.1988 144.014 81.5836 142.357C81.7063 141.695 82.0079 141.078 82.4559 140.574C82.9332 140.103 83.7127 139.88 84.2952 140.213C84.1363 139.788 84.0663 139.335 84.0895 138.883C84.1127 138.43 84.2287 137.987 84.4303 137.58C84.8397 136.769 85.433 136.064 86.163 135.521C87.5592 134.449 89.2204 133.773 90.9703 133.567C92.7202 133.36 94.4936 133.63 96.1022 134.347C96.7352 134.64 95.6956 132.38 96.3581 132.598C97.0163 132.852 97.748 132.839 98.3968 132.562C99.02 132.249 101.085 134.109 100.846 133.455C101.319 133.669 101.73 133.999 102.041 134.414C102.351 134.83 102.551 135.317 102.623 135.83C102.694 136.343 102.634 136.866 102.448 137.35C102.262 137.834 101.956 138.263 101.559 138.597C101.036 139.037 100.383 139.291 99.8106 139.665C98.8073 140.369 98.0971 141.415 97.8142 142.606C97.5313 143.797 97.6952 145.05 98.2749 146.129C97.6724 145.743 97.0114 145.456 96.3173 145.28C95.9691 145.195 95.6056 145.195 95.2571 145.278C94.9086 145.362 94.5852 145.527 94.3137 145.761C94.0868 146.02 93.9155 146.322 93.8101 146.65C93.7047 146.977 93.6675 147.323 93.7009 147.665C93.7236 148.351 93.8872 149.027 93.9055 149.713C93.9594 151.727 95.0403 155.555 93.4755 156.625C92.2407 157.47 87.8588 156.268 86.3834 155.263Z" fill="#2F2E41"/>
<path d="M99.6689 95.9415C99.4555 95.941 99.2443 95.8984 99.0474 95.8161C98.7536 95.6984 98.5023 95.4949 98.3264 95.2322C98.1505 94.9696 98.0582 94.6601 98.0615 94.3442V92.7439C98.0612 92.4082 97.9274 92.0864 97.6895 91.849C97.4516 91.6117 97.129 91.4781 96.7926 91.4778C96.3691 91.4773 95.9631 91.3092 95.6637 91.0105C95.3642 90.7117 95.1958 90.3067 95.1953 89.8842V67.9598C95.1958 67.5373 95.3642 67.1323 95.6636 66.8335C95.963 66.5348 96.369 66.3667 96.7924 66.3662H169.597C170.021 66.3667 170.427 66.5347 170.726 66.8335C171.026 67.1322 171.194 67.5373 171.195 67.9598V89.8842C171.194 90.3067 171.026 90.7117 170.726 91.0105C170.427 91.3092 170.021 91.4773 169.597 91.4778H105.316C105.15 91.4773 104.984 91.5098 104.83 91.5735C104.676 91.6371 104.536 91.7306 104.419 91.8485L100.788 95.4708C100.642 95.6193 100.468 95.7373 100.276 95.8182C100.084 95.899 99.8774 95.9409 99.6689 95.9415Z" fill="white"/>
<path d="M99.667 96.2692C99.4104 96.2689 99.1564 96.2178 98.9197 96.1189C98.5656 95.9769 98.2628 95.7315 98.0508 95.4149C97.8387 95.0983 97.7274 94.7253 97.7314 94.3445V92.7444C97.7312 92.4955 97.632 92.2569 97.4557 92.0808C97.2793 91.9048 97.0402 91.8058 96.7907 91.8055C96.2802 91.8049 95.7908 91.6023 95.4298 91.2421C95.0688 90.882 94.8658 90.3936 94.8652 89.8843V67.9601C94.8658 67.4508 95.0688 66.9625 95.4297 66.6024C95.7907 66.2422 96.2801 66.0397 96.7906 66.0391H169.595C170.106 66.0396 170.595 66.2422 170.956 66.6024C171.317 66.9625 171.52 67.4508 171.521 67.9601V89.8843C171.52 90.3936 171.317 90.882 170.956 91.2421C170.595 91.6023 170.106 91.8049 169.595 91.8055H105.314C105.191 91.8051 105.068 91.8293 104.954 91.8765C104.84 91.9237 104.736 91.993 104.649 92.0805L101.018 95.7026C100.842 95.8815 100.632 96.0238 100.4 96.121C100.168 96.2183 99.9187 96.2687 99.667 96.2692ZM96.7906 66.694C96.4541 66.6944 96.1316 66.8279 95.8937 67.0653C95.6558 67.3026 95.522 67.6244 95.5216 67.9601V89.8843C95.522 90.22 95.6558 90.5419 95.8937 90.7793C96.1316 91.0167 96.4542 91.1503 96.7907 91.1506C97.2142 91.1512 97.6202 91.3192 97.9196 91.618C98.219 91.9168 98.3874 92.3219 98.3879 92.7444V94.3445C98.3879 94.5949 98.4624 94.8397 98.6018 95.0478C98.7413 95.256 98.9395 95.4182 99.1714 95.514C99.4032 95.6098 99.6584 95.6349 99.9045 95.586C100.151 95.5372 100.377 95.4166 100.554 95.2396L104.185 91.6175C104.333 91.469 104.509 91.3513 104.703 91.2711C104.897 91.191 105.105 91.15 105.314 91.1506H169.595C169.932 91.1503 170.255 91.0167 170.492 90.7793C170.73 90.5419 170.864 90.22 170.865 89.8843V67.9601C170.864 67.6244 170.73 67.3026 170.492 67.0652C170.254 66.8278 169.932 66.6943 169.595 66.694L96.7906 66.694Z" fill="#3F3D56"/>
<path d="M163.341 76.2919H104.303C104.078 76.2919 103.862 76.2026 103.702 76.0435C103.543 75.8844 103.453 75.6686 103.453 75.4436C103.453 75.2186 103.543 75.0028 103.702 74.8437C103.862 74.6846 104.078 74.5952 104.303 74.5952H163.341C163.566 74.5952 163.782 74.6846 163.942 74.8437C164.101 75.0028 164.191 75.2186 164.191 75.4436C164.191 75.6686 164.101 75.8844 163.942 76.0435C163.782 76.2026 163.566 76.2919 163.341 76.2919Z" fill="#4584FF"/>
<path d="M163.232 79.8964H104.303C104.078 79.8964 103.862 79.8071 103.702 79.648C103.543 79.4889 103.453 79.2731 103.453 79.0481C103.453 78.8231 103.543 78.6073 103.702 78.4482C103.862 78.2891 104.078 78.1997 104.303 78.1997H163.232C163.458 78.1997 163.674 78.2891 163.833 78.4482C163.993 78.6073 164.082 78.8231 164.082 79.0481C164.082 79.2731 163.993 79.4889 163.833 79.648C163.674 79.8071 163.458 79.8964 163.232 79.8964Z" fill="#E6E6E6"/>
<path d="M163.173 83.5004H104.303C104.078 83.5004 103.862 83.411 103.702 83.2519C103.543 83.0928 103.453 82.8771 103.453 82.6521C103.453 82.4271 103.543 82.2113 103.702 82.0522C103.862 81.8931 104.078 81.8037 104.303 81.8037H163.173C163.399 81.8037 163.615 81.8931 163.775 82.0522C163.934 82.2113 164.024 82.4271 164.024 82.6521C164.024 82.8771 163.934 83.0928 163.775 83.2519C163.615 83.411 163.399 83.5004 163.173 83.5004Z" fill="#E6E6E6"/>
<path d="M256.312 62.964C256.312 63.7597 256.286 64.5554 256.23 65.3446C256.171 66.2876 256.069 67.2241 255.932 68.1541C255.468 71.2853 254.583 74.3397 253.299 77.2342C253.234 77.3783 253.168 77.5224 253.103 77.6665L253.004 77.8826C252.971 77.9546 252.935 78.0267 252.902 78.0954C252.856 78.1904 252.814 78.2821 252.768 78.3738C252.712 78.4884 252.656 78.603 252.597 78.7176C252.59 78.7307 252.584 78.747 252.574 78.7634C252.525 78.8617 252.479 78.9566 252.426 79.0548C252.417 79.0762 252.406 79.097 252.394 79.1171C252.338 79.2284 252.279 79.343 252.22 79.4543C252.154 79.5722 252.092 79.6934 252.026 79.8112C251.868 80.1027 251.704 80.3908 251.537 80.679C251.488 80.7641 251.438 80.8493 251.386 80.9344C251.34 81.013 251.294 81.0916 251.245 81.1702C251.212 81.2226 251.179 81.2782 251.146 81.3306C251.094 81.419 251.041 81.5042 250.986 81.5926C250.864 81.7858 250.739 81.979 250.618 82.1722H250.615C250.559 82.2606 250.5 82.349 250.441 82.4341V82.4374C250.267 82.6994 250.086 82.9613 249.906 83.22C249.905 83.22 249.905 83.2201 249.904 83.2202C249.904 83.2204 249.904 83.2206 249.903 83.2209C249.903 83.2212 249.903 83.2216 249.903 83.222C249.903 83.2224 249.902 83.2228 249.902 83.2232C249.758 83.4328 249.607 83.6358 249.459 83.8389V83.8421C249.361 83.9698 249.266 84.1008 249.167 84.2285C249.089 84.3333 249.006 84.4414 248.924 84.5461C248.908 84.569 248.888 84.5887 248.872 84.6116V84.6149C248.849 84.6444 248.826 84.6706 248.803 84.7C248.455 85.1454 248.096 85.5809 247.726 86.0066L247.667 86.0753C247.648 86.0983 247.625 86.1212 247.605 86.1474C247.572 86.1834 247.543 86.2194 247.51 86.2554C247.48 86.2914 247.447 86.3275 247.415 86.3635C245.487 88.5298 243.301 90.4531 240.906 92.0906C240.588 92.31 240.263 92.5228 239.938 92.7291C239.856 92.7815 239.774 92.8339 239.692 92.883C239.669 92.8994 239.643 92.9157 239.62 92.9321C239.574 92.9583 239.531 92.9845 239.485 93.014C239.443 93.0402 239.4 93.0664 239.354 93.0926C239.18 93.2006 239.003 93.3054 238.826 93.4102C238.783 93.4364 238.737 93.4626 238.691 93.4888C238.648 93.5117 238.602 93.5379 238.556 93.5641C238.556 93.5674 238.556 93.5674 238.553 93.5674H238.55V93.5707H238.547C238.327 93.6983 238.103 93.8228 237.877 93.9439C237.756 94.0094 237.631 94.0782 237.506 94.1404C237.224 94.2943 236.938 94.4416 236.653 94.5825C236.551 94.6316 236.446 94.6807 236.344 94.7331C236.259 94.7724 236.174 94.8149 236.088 94.8542C236.062 94.8673 236.039 94.8772 236.016 94.8903C235.944 94.923 235.875 94.9557 235.803 94.9885C235.724 95.0245 235.645 95.0605 235.57 95.0965C235.481 95.1358 235.396 95.1751 235.307 95.2112C234.979 95.3585 234.647 95.4993 234.316 95.6336C233.128 96.1194 231.914 96.5392 230.679 96.891C230.624 96.9073 230.565 96.9237 230.505 96.9401C229.977 97.0874 229.445 97.2217 228.91 97.3428C227.975 97.559 227.031 97.7358 226.078 97.8733H226.071C225.957 97.8897 225.845 97.9061 225.73 97.9224C225.72 97.9224 225.71 97.9257 225.697 97.9257C225.697 97.929 225.697 97.929 225.694 97.9257C225.569 97.9421 225.441 97.9585 225.317 97.9748C225.308 97.9773 225.299 97.9784 225.29 97.9781C225.172 97.9945 225.051 98.0076 224.933 98.0207C224.805 98.0338 224.677 98.0469 224.549 98.06C224.45 98.0698 224.352 98.0796 224.253 98.0894C224.245 98.0923 224.236 98.0935 224.227 98.0927C224.138 98.0993 224.05 98.1091 223.961 98.1156H223.948C223.872 98.1222 223.794 98.1287 223.718 98.1353C222.802 98.2073 221.883 98.2401 220.951 98.2401C219.944 98.2401 218.943 98.2008 217.955 98.1156H217.945C217.732 98.096 217.522 98.0763 217.312 98.0567C217.256 98.0501 217.203 98.0469 217.147 98.0403C217.138 98.0403 217.125 98.037 217.115 98.037C217.098 98.0338 217.082 98.0338 217.062 98.0305C217.053 98.0308 217.044 98.0297 217.036 98.0272C216.964 98.0207 216.891 98.0108 216.816 98.0043L216.57 97.9748C216.488 97.965 216.406 97.9519 216.324 97.9421C216.304 97.9388 216.288 97.9388 216.268 97.9355C216.209 97.929 216.15 97.9192 216.091 97.9094C216.061 97.9061 216.032 97.9028 216.005 97.8995C215.946 97.8897 215.89 97.8831 215.831 97.8733H215.828C214.027 97.6146 212.249 97.215 210.511 96.6781C210.419 96.6487 210.327 96.6225 210.235 96.593C210.232 96.593 210.229 96.5897 210.226 96.5897C210.199 96.5799 210.17 96.5733 210.144 96.5635C209.897 96.4849 209.655 96.4031 209.412 96.3179C209.077 96.2066 208.745 96.0855 208.414 95.961C208.325 95.925 208.237 95.8923 208.148 95.8562C207.968 95.7875 207.79 95.7154 207.613 95.6434C207.311 95.5222 207.009 95.3945 206.711 95.2636C206.432 95.1391 206.156 95.0147 205.88 94.8837C205.874 94.8805 205.864 94.8805 205.857 94.8739C205.795 94.8444 205.732 94.815 205.673 94.7855H205.67C204.159 94.0618 202.701 93.2312 201.308 92.3001C200.862 92.0022 200.422 91.6944 199.989 91.3768C199.641 91.1181 199.3 90.8561 198.958 90.5876C197.274 89.2512 195.716 87.7651 194.301 86.1474V86.1441C194.199 86.0328 194.104 85.9182 194.006 85.8036C193.989 85.7872 193.976 85.7708 193.963 85.7577C193.901 85.6824 193.842 85.6104 193.779 85.5383V85.5351C193.697 85.4401 193.615 85.3419 193.536 85.2436C193.517 85.2207 193.5 85.2011 193.484 85.1814V85.1781C193.418 85.0996 193.356 85.021 193.29 84.9391C193.257 84.8998 193.228 84.8605 193.195 84.8212V84.8179C193.001 84.5756 192.814 84.3333 192.627 84.0845C192.578 84.019 192.529 83.9502 192.476 83.8814C192.24 83.5638 192.01 83.2396 191.787 82.9155V82.9122C191.702 82.791 191.62 82.6666 191.534 82.5455C191.452 82.421 191.37 82.2966 191.288 82.1722C191.206 82.0412 191.121 81.9135 191.039 81.7825L191.029 81.7629C190.947 81.6384 190.865 81.5075 190.786 81.3797C190.724 81.2749 190.661 81.1734 190.599 81.0719C190.56 81.0032 190.517 80.9344 190.477 80.8624C190.462 80.8402 190.448 80.8173 190.435 80.7936C190.343 80.6332 190.251 80.4727 190.159 80.3123C190.051 80.1256 189.946 79.9357 189.841 79.7458C189.801 79.6672 189.759 79.5886 189.716 79.51C189.7 79.4838 189.686 79.4576 189.673 79.4314C189.624 79.3398 189.575 79.2448 189.529 79.1498C189.48 79.0581 189.43 78.9632 189.381 78.8682C189.335 78.7765 189.286 78.6816 189.24 78.5866C189.204 78.5146 189.171 78.4425 189.135 78.3705C189.133 78.3646 189.129 78.3591 189.125 78.3541C189.109 78.3181 189.092 78.2854 189.079 78.2526C189.075 78.2476 189.072 78.2421 189.069 78.2362C189.033 78.1642 189.001 78.0889 188.964 78.0169C188.918 77.9219 188.876 77.8237 188.83 77.7287C188.8 77.6632 188.768 77.5944 188.738 77.5257C188.695 77.4307 188.649 77.3358 188.61 77.2375C188.564 77.1393 188.521 77.0411 188.479 76.9395C188.466 76.9151 188.455 76.8899 188.446 76.8642C188.423 76.8184 188.406 76.7725 188.387 76.7267C188.334 76.6056 188.282 76.4811 188.233 76.36C188.173 76.2224 188.118 76.0816 188.065 75.9441C188.013 75.8164 187.963 75.6854 187.914 75.5544L187.894 75.5086C187.13 73.4991 186.55 71.4243 186.162 69.31V69.3067C185.943 68.0996 185.786 66.8821 185.692 65.6589C185.689 65.5902 185.682 65.5247 185.679 65.4592C185.62 64.6307 185.594 63.799 185.594 62.964C185.594 62.594 185.6 62.2273 185.61 61.8605C185.839 54.1905 188.581 46.8065 193.415 40.8383C193.52 40.7073 193.625 40.5764 193.733 40.4454C193.842 40.3144 193.953 40.1867 194.061 40.059C197.659 35.8553 202.197 32.5538 207.308 30.4207C212.42 28.2876 217.962 27.3826 223.489 27.7787C229.015 28.1747 234.371 29.8608 239.124 32.7008C243.877 35.5409 247.896 39.4555 250.854 44.1292C251.015 44.3846 251.176 44.6433 251.33 44.902C251.488 45.1639 251.639 45.4259 251.79 45.6911C254.763 50.9641 256.321 56.9139 256.312 62.964Z" fill="#F2F2F2"/>
<path d="M222.358 39.89C216.543 41.3785 210.585 42.2366 204.586 42.4492C203.679 42.4985 202.769 42.4923 201.863 42.4307C199.871 42.2635 198.165 41.6389 196.265 41.2976C195.351 41.134 194.334 41.0143 193.414 40.8375C193.627 40.5745 193.843 40.3147 194.063 40.0581C196.046 40.2252 198.06 40.7724 200.067 41.0266C203.478 41.4595 207.301 40.9765 209.887 39.7854C211.142 39.2074 212.103 38.486 213.353 37.9054C213.523 37.8183 213.707 37.762 213.897 37.7391C214.258 37.7283 214.614 37.8205 214.924 38.0048C217.021 39.0613 220.067 39.92 222.894 39.4475C223.105 39.6121 222.704 39.7994 222.358 39.89Z" fill="white"/>
<path d="M234.865 43.6088C234.891 43.604 234.916 43.6004 234.942 43.5959C234.834 43.5286 234.731 43.4515 234.637 43.3657L234.865 43.6088Z" fill="white"/>
<path d="M251.788 45.6928C250.608 45.787 249.421 45.857 248.228 45.9031C247.321 45.9519 246.411 45.9458 245.505 45.8846C243.513 45.7166 241.807 45.0929 239.907 44.7515C238.165 44.4392 236.049 44.2888 234.943 43.5956C237.801 43.1021 240.762 44.1067 243.709 44.4806C246.093 44.773 248.509 44.654 250.852 44.1287C251.178 44.6407 251.49 45.1621 251.788 45.6928Z" fill="white"/>
<path d="M216.964 78.4006C222.829 78.4006 227.584 73.551 227.584 67.5687C227.584 61.5864 222.829 56.7368 216.964 56.7368C211.099 56.7368 206.344 61.5864 206.344 67.5687C206.344 73.551 211.099 78.4006 216.964 78.4006Z" fill="#FFB6B6"/>
<path d="M237.505 94.1404C237.223 94.2943 236.937 94.4416 236.652 94.5824C236.55 94.6316 236.445 94.6807 236.343 94.7331C236.258 94.7724 236.173 94.8149 236.087 94.8542C236.061 94.8673 236.038 94.8771 236.015 94.8902C235.943 94.923 235.874 94.9557 235.802 94.9885C235.723 95.0245 235.644 95.0605 235.569 95.0965C235.48 95.1358 235.395 95.1751 235.306 95.2112C234.978 95.3585 234.646 95.4993 234.315 95.6336C233.127 96.1194 231.913 96.5392 230.678 96.891C230.623 96.9073 230.563 96.9237 230.504 96.9401C229.976 97.0874 229.444 97.2217 228.909 97.3428C227.974 97.559 227.03 97.7358 226.077 97.8733H226.07C225.955 97.8897 225.844 97.906 225.729 97.9224C225.719 97.9224 225.709 97.9257 225.696 97.9257C225.696 97.929 225.696 97.929 225.693 97.9257C225.568 97.9421 225.44 97.9584 225.315 97.9748C225.307 97.9773 225.298 97.9784 225.289 97.9781C225.171 97.9945 225.05 98.0075 224.931 98.0206C224.803 98.0337 224.675 98.0469 224.547 98.06C224.449 98.0698 224.351 98.0796 224.252 98.0894C224.244 98.0923 224.235 98.0934 224.226 98.0927C224.137 98.0992 224.049 98.1091 223.96 98.1156H223.947C223.871 98.1222 223.793 98.1287 223.717 98.1353C222.801 98.2073 221.882 98.2401 220.95 98.2401C219.943 98.2401 218.942 98.2008 217.954 98.1156H217.944C217.731 98.096 217.521 98.0763 217.31 98.0567C217.255 98.0501 217.202 98.0468 217.146 98.0403C217.137 98.0403 217.123 98.037 217.114 98.037C217.097 98.0338 217.081 98.0338 217.061 98.0305C217.052 98.0308 217.043 98.0297 217.035 98.0272C216.963 98.0207 216.89 98.0108 216.815 98.0043L216.569 97.9748C216.487 97.965 216.405 97.9519 216.323 97.9421C216.303 97.9388 216.286 97.9388 216.267 97.9355C216.208 97.929 216.149 97.9192 216.09 97.9093C216.06 97.9061 216.031 97.9028 216.004 97.8995C215.945 97.8897 215.889 97.8831 215.83 97.8733H215.827C214.026 97.6146 212.248 97.215 210.51 96.6781C210.418 96.6487 210.326 96.6224 210.234 96.593C210.658 94.6212 211.531 92.773 212.784 91.1912C214.038 89.6094 215.639 88.3363 217.465 87.4703C217.013 87.0412 216.701 86.4868 216.569 85.8789C216.484 85.487 216.477 85.0822 216.549 84.6877C216.621 84.2932 216.771 83.9168 216.989 83.5802C217.415 82.9277 218.083 82.4707 218.847 82.3097L223.711 81.2946C224.494 81.1423 225.305 81.3045 225.969 81.746C226.633 82.1875 227.095 82.8725 227.255 83.6522C227.305 83.8912 227.327 84.1351 227.321 84.3792C232.004 87.4899 235.375 90.7153 237.505 94.1404Z" fill="#4584FF"/>
<path d="M245.382 62.8707C243.577 60.7704 242.719 57.9838 241.276 55.5988C239.833 53.2138 237.321 51.0792 234.668 51.6342C232.839 52.0168 231.426 53.6269 230.71 55.422C229.995 57.2171 229.861 59.1967 229.735 61.136C229.78 57.1506 227.148 53.287 223.522 52.0153C219.897 50.7436 215.559 52.1621 213.281 55.364C212.287 54.4447 210.989 53.9213 209.634 53.8929C208.279 53.8645 206.96 54.3331 205.928 55.21C203.891 57.0269 203.44 60.4851 204.938 62.8027C206.437 65.1202 209.682 65.9835 212.064 64.6982L212.906 65.4709C212.432 67.1245 213.351 69.0779 214.896 69.7004C216.148 70.2053 217.917 70.1212 218.386 71.4328C218.713 72.3493 218.101 73.3275 217.45 74.0317C216.798 74.7359 216.025 75.4632 215.947 76.4377C215.829 77.9081 217.352 78.9381 218.736 79.2483C222.074 79.9963 225.779 78.454 227.703 75.5147C227.74 75.458 227.78 75.4013 227.824 75.3444C228.903 73.9671 229.69 72.3846 230.136 70.6937C230.582 69.0028 230.677 67.239 230.417 65.51C230.308 64.8307 230.417 64.3254 230.887 64.1645C232.916 63.4691 238.601 64.9286 240.322 66.2477C242.042 67.5667 243.42 69.3124 245.077 70.7166C246.735 72.1209 248.847 73.204 250.951 72.8216C252.636 72.5154 254.07 71.2946 255.035 69.8222C255.999 68.3497 256.554 66.6334 257.051 64.9277C253.324 67.0757 248.224 66.1765 245.382 62.8707Z" fill="#2F2E41"/>
<path d="M27.3692 41.025C27.3692 41.8207 27.3954 42.6164 27.4512 43.4056C27.5103 44.3486 27.612 45.2852 27.7499 46.2151C28.2132 49.3463 29.0986 52.4007 30.3821 55.2953C30.4477 55.4393 30.5134 55.5834 30.579 55.7275L30.6775 55.9436C30.7103 56.0156 30.7464 56.0877 30.7792 56.1565C30.8252 56.2514 30.8678 56.3431 30.9138 56.4348C30.9696 56.5494 31.0254 56.664 31.0845 56.7786C31.091 56.7917 31.0976 56.8081 31.1074 56.8244C31.1567 56.9227 31.2026 57.0176 31.2551 57.1159C31.2648 57.1373 31.2757 57.158 31.288 57.1781C31.3438 57.2894 31.4028 57.404 31.4619 57.5154C31.5275 57.6333 31.5899 57.7544 31.6555 57.8723C31.8131 58.1637 31.9772 58.4519 32.1446 58.74C32.1938 58.8252 32.243 58.9103 32.2955 58.9954C32.3415 59.074 32.3874 59.1526 32.4367 59.2312C32.4695 59.2836 32.5023 59.3393 32.5351 59.3916C32.5876 59.4801 32.6402 59.5652 32.696 59.6536C32.8174 59.8468 32.9421 60.04 33.0635 60.2332H33.0668C33.1226 60.3216 33.1817 60.41 33.2408 60.4951V60.4984C33.4147 60.7604 33.5952 61.0223 33.7758 61.281C33.7762 61.281 33.7766 61.2811 33.777 61.2812C33.7774 61.2814 33.7778 61.2816 33.7781 61.282C33.7784 61.2823 33.7786 61.2826 33.7788 61.283C33.779 61.2834 33.779 61.2838 33.779 61.2843C33.9235 61.4938 34.0744 61.6969 34.2221 61.8999V61.9032C34.3206 62.0309 34.4158 62.1618 34.5142 62.2896C34.593 62.3943 34.675 62.5024 34.7571 62.6072C34.7735 62.6301 34.7932 62.6497 34.8096 62.6727V62.6759C34.8326 62.7054 34.8555 62.7316 34.8785 62.7611C35.2264 63.2064 35.5853 63.6419 35.955 64.0676L36.0141 64.1364C36.0338 64.1593 36.0568 64.1822 36.0765 64.2084C36.1093 64.2444 36.1388 64.2804 36.1717 64.3165C36.2012 64.3525 36.234 64.3885 36.2668 64.4245C38.1944 66.5908 40.3801 68.5141 42.7752 70.1516C43.0935 70.371 43.4184 70.5838 43.7434 70.7901C43.8254 70.8425 43.9075 70.8949 43.9895 70.944C44.0125 70.9604 44.0388 70.9768 44.0617 70.9931C44.1077 71.0193 44.1503 71.0455 44.1963 71.075C44.239 71.1012 44.2816 71.1274 44.3276 71.1536C44.5015 71.2617 44.6788 71.3664 44.856 71.4712C44.8987 71.4974 44.9446 71.5236 44.9906 71.5498C45.0332 71.5727 45.0792 71.5989 45.1251 71.6251C45.1251 71.6284 45.1251 71.6284 45.1284 71.6284H45.1317V71.6317H45.135C45.3549 71.7594 45.5781 71.8838 45.8045 72.005C45.9259 72.0704 46.0507 72.1392 46.1754 72.2014C46.4576 72.3553 46.7432 72.5027 47.0287 72.6435C47.1305 72.6926 47.2355 72.7417 47.3372 72.7941C47.4226 72.8334 47.5079 72.876 47.5932 72.9153C47.6195 72.9284 47.6425 72.9382 47.6654 72.9513C47.7376 72.984 47.8066 73.0168 47.8788 73.0495C47.9575 73.0856 48.0363 73.1216 48.1118 73.1576C48.2004 73.1969 48.2857 73.2362 48.3744 73.2722C48.7026 73.4195 49.0341 73.5603 49.3655 73.6946C50.5535 74.1804 51.7675 74.6002 53.0021 74.952C53.0579 74.9684 53.1169 74.9847 53.176 75.0011C53.7044 75.1485 54.2361 75.2827 54.7711 75.4039C55.7065 75.62 56.6506 75.7968 57.6035 75.9343H57.6101C57.725 75.9507 57.8366 75.9671 57.9514 75.9835C57.9613 75.9835 57.9711 75.9867 57.9842 75.9867C57.9842 75.99 57.9843 75.99 57.9875 75.9867C58.1123 76.0031 58.2403 76.0195 58.365 76.0359C58.3735 76.0384 58.3824 76.0395 58.3912 76.0391C58.5094 76.0555 58.6308 76.0686 58.749 76.0817C58.877 76.0948 59.005 76.1079 59.133 76.121C59.2314 76.1308 59.3299 76.1406 59.4284 76.1505C59.4368 76.1534 59.4457 76.1545 59.4546 76.1537C59.5432 76.1603 59.6318 76.1701 59.7205 76.1767H59.7336C59.8091 76.1832 59.8878 76.1898 59.9633 76.1963C60.879 76.2684 61.798 76.3011 62.7301 76.3011C63.7377 76.3011 64.7387 76.2618 65.7266 76.1767H65.7365C65.9498 76.157 66.1599 76.1374 66.3699 76.1177C66.4257 76.1112 66.4782 76.1079 66.534 76.1013C66.5439 76.1013 66.557 76.0981 66.5668 76.0981C66.5833 76.0948 66.5997 76.0948 66.6194 76.0915C66.6282 76.0919 66.6371 76.0908 66.6456 76.0882C66.7178 76.0817 66.79 76.0719 66.8655 76.0653L67.1117 76.0359C67.1937 76.026 67.2758 76.0129 67.3578 76.0031C67.3775 75.9998 67.3939 75.9998 67.4136 75.9966C67.4727 75.99 67.5318 75.9802 67.5908 75.9704C67.6204 75.9671 67.6499 75.9638 67.6762 75.9606C67.7353 75.9507 67.791 75.9442 67.8501 75.9344H67.8534C69.6544 75.6757 71.4322 75.2761 73.1704 74.7392C73.2622 74.7097 73.3541 74.6835 73.446 74.654C73.4493 74.654 73.4526 74.6508 73.4559 74.6508C73.4821 74.6409 73.5117 74.6344 73.5379 74.6246C73.7841 74.546 74.027 74.4641 74.2698 74.379C74.6046 74.2676 74.9361 74.1465 75.2676 74.0221C75.3562 73.986 75.4448 73.9533 75.5334 73.9173C75.7139 73.8485 75.8912 73.7765 76.0684 73.7044C76.3704 73.5833 76.6723 73.4556 76.971 73.3246C77.25 73.2002 77.5256 73.0757 77.8013 72.9448C77.8079 72.9415 77.8177 72.9415 77.8243 72.9349C77.8867 72.9055 77.949 72.876 78.0081 72.8465H78.0114C79.5228 72.1228 80.9805 71.2923 82.3732 70.3612C82.8196 70.0632 83.2594 69.7554 83.6926 69.4378C84.0405 69.1791 84.3819 68.9171 84.7232 68.6486C86.4071 67.3123 87.966 65.8261 89.3804 64.2084V64.2051C89.4822 64.0938 89.5774 63.9792 89.6758 63.8646C89.6922 63.8482 89.7054 63.8319 89.7185 63.8188C89.7809 63.7434 89.8399 63.6714 89.9023 63.5994V63.5961C89.9843 63.5011 90.0664 63.4029 90.1452 63.3047C90.1649 63.2818 90.1813 63.2621 90.1977 63.2424V63.2392C90.2633 63.1606 90.3257 63.082 90.3913 63.0001C90.4241 62.9608 90.4537 62.9215 90.4865 62.8823V62.879C90.6801 62.6367 90.8672 62.3944 91.0543 62.1455C91.1035 62.08 91.1528 62.0112 91.2053 61.9425C91.4416 61.6248 91.6713 61.3007 91.8945 60.9765V60.9732C91.9798 60.8521 92.0619 60.7276 92.1472 60.6065C92.2293 60.4821 92.3113 60.3576 92.3934 60.2332C92.4754 60.1022 92.5608 59.9745 92.6428 59.8435L92.6527 59.8239C92.7347 59.6995 92.8168 59.5685 92.8955 59.4408C92.9579 59.336 93.0202 59.2345 93.0826 59.133C93.122 59.0642 93.1647 58.9954 93.204 58.9234C93.2194 58.9012 93.2337 58.8783 93.2467 58.8546C93.3386 58.6942 93.4305 58.5337 93.5224 58.3733C93.6307 58.1867 93.7357 57.9967 93.8408 57.8068C93.8801 57.7282 93.9228 57.6496 93.9655 57.5711C93.9819 57.5449 93.995 57.5187 94.0082 57.4925C94.0574 57.4008 94.1066 57.3058 94.1526 57.2109C94.2018 57.1192 94.251 57.0242 94.3003 56.9293C94.3462 56.8376 94.3954 56.7426 94.4414 56.6476C94.4775 56.5756 94.5103 56.5036 94.5464 56.4315C94.549 56.4257 94.5523 56.4202 94.5563 56.4152C94.5727 56.3791 94.5891 56.3464 94.6022 56.3136C94.6062 56.3087 94.6095 56.3031 94.6121 56.2973C94.6482 56.2252 94.681 56.1499 94.7171 56.0779C94.763 55.9829 94.8057 55.8847 94.8516 55.7897C94.8812 55.7242 94.914 55.6555 94.9435 55.5867C94.9862 55.4918 95.0322 55.3968 95.0715 55.2986C95.1175 55.2003 95.1602 55.1021 95.2028 55.0006C95.2151 54.9761 95.2261 54.9509 95.2356 54.9253C95.2586 54.8794 95.275 54.8336 95.2947 54.7877C95.3472 54.6666 95.3997 54.5422 95.449 54.421C95.5081 54.2835 95.5639 54.1427 95.6164 54.0051C95.6689 53.8774 95.7181 53.7464 95.7673 53.6155L95.787 53.5696C96.5518 51.5601 97.1318 49.4853 97.52 47.371V47.3677C97.7389 46.1606 97.8955 44.9431 97.9893 43.72C97.9926 43.6512 97.9991 43.5857 98.0024 43.5202C98.0615 42.6918 98.0878 41.8601 98.0878 41.0251C98.0878 40.655 98.0812 40.2883 98.0714 39.9216C97.8422 32.2515 95.1009 24.8676 90.2666 18.8993C90.1616 18.7684 90.0566 18.6374 89.9482 18.5064C89.8399 18.3754 89.7283 18.2477 89.62 18.12C86.0221 13.9163 81.4845 10.6148 76.3731 8.48172C71.2616 6.34863 65.7193 5.44365 60.193 5.83971C54.6666 6.23577 49.3108 7.92179 44.5574 10.7619C39.804 13.6019 35.786 17.5166 32.8273 22.1902C32.6664 22.4456 32.5056 22.7043 32.3514 22.963C32.1938 23.225 32.0428 23.4869 31.8919 23.7522C28.9185 29.0251 27.3607 34.9749 27.3692 41.025Z" fill="#F2F2F2"/>
<path d="M61.3231 17.9511C67.1375 19.4396 73.096 20.2976 79.0949 20.5102C80.0021 20.5595 80.9114 20.5533 81.8178 20.4917C83.8097 20.3246 85.5159 19.7 87.416 19.3586C88.3295 19.195 89.3471 19.0754 90.2668 18.8985C90.0543 18.6355 89.8379 18.3757 89.6178 18.1191C87.6347 18.2863 85.6208 18.8334 83.6139 19.0877C80.2024 19.5205 76.38 19.0375 73.7938 17.8464C72.5391 17.2684 71.578 16.547 70.3276 15.9664C70.1576 15.8793 69.9734 15.823 69.7836 15.8002C69.4231 15.7894 69.067 15.8815 68.7572 16.0658C66.6595 17.1224 63.6139 17.981 60.787 17.5086C60.5763 17.6731 60.9766 17.8605 61.3231 17.9511Z" fill="white"/>
<path d="M48.8158 21.6698C48.79 21.6651 48.7641 21.6614 48.7383 21.6569C48.8469 21.5896 48.9491 21.5126 49.0438 21.4268L48.8158 21.6698Z" fill="white"/>
<path d="M31.8926 23.7534C33.0732 23.8475 34.2601 23.9176 35.4531 23.9636C36.3603 24.0125 37.2696 24.0063 38.176 23.9452C40.1679 23.7771 41.8741 23.1534 43.7742 22.8121C45.5157 22.4998 47.6319 22.3493 48.7376 21.6561C45.8799 21.1626 42.9189 22.1672 39.9721 22.5411C37.5885 22.8335 35.1722 22.7145 32.829 22.1892C32.5027 22.7012 32.1906 23.2226 31.8926 23.7534Z" fill="white"/>
<path d="M46.1738 72.2014C46.4561 72.3553 46.7416 72.5027 47.0272 72.6435C47.1289 72.6926 47.2339 72.7417 47.3357 72.7941C47.421 72.8334 47.5063 72.876 47.5917 72.9153C47.6179 72.9284 47.6409 72.9382 47.6639 72.9513C47.7361 72.984 47.805 73.0168 47.8772 73.0495C47.956 73.0856 48.0348 73.1216 48.1103 73.1576C48.1989 73.1969 48.2842 73.2362 48.3728 73.2722C48.701 73.4195 49.0325 73.5603 49.364 73.6946C50.552 74.1804 51.766 74.6002 53.0005 74.952C53.0563 74.9684 53.1154 74.9847 53.1745 75.0011C53.7029 75.1485 54.2346 75.2827 54.7696 75.4039C55.705 75.62 56.6491 75.7968 57.602 75.9343H57.6085C57.7234 75.9507 57.835 75.9671 57.9499 75.9835C57.9597 75.9835 57.9696 75.9867 57.9827 75.9867C57.9827 75.99 57.9827 75.99 57.986 75.9867C58.1107 76.0031 58.2387 76.0195 58.3634 76.0358C58.3719 76.0384 58.3808 76.0395 58.3897 76.0391C58.5078 76.0555 58.6293 76.0686 58.7474 76.0817C58.8754 76.0948 59.0034 76.1079 59.1314 76.121C59.2299 76.1308 59.3284 76.1406 59.4268 76.1505C59.4352 76.1534 59.4442 76.1545 59.4531 76.1537C59.5417 76.1603 59.6303 76.1701 59.7189 76.1767H59.732C59.8075 76.1832 59.8863 76.1898 59.9618 76.1963C60.8775 76.2684 61.7965 76.3011 62.7286 76.3011C63.7362 76.3011 64.7372 76.2618 65.7251 76.1767H65.7349C65.9483 76.157 66.1583 76.1374 66.3684 76.1177C66.4242 76.1112 66.4767 76.1079 66.5325 76.1013C66.5423 76.1013 66.5555 76.0981 66.5653 76.0981C66.5817 76.0948 66.5981 76.0948 66.6178 76.0915C66.6267 76.0919 66.6355 76.0907 66.6441 76.0882C66.7163 76.0817 66.7885 76.0719 66.864 76.0653L67.1101 76.0358C67.1922 76.026 67.2742 76.0129 67.3563 76.0031C67.376 75.9998 67.3924 75.9998 67.4121 75.9966C67.4711 75.99 67.5302 75.9802 67.5893 75.9704C67.6188 75.9671 67.6484 75.9638 67.6746 75.9605C67.7337 75.9507 67.7895 75.9442 67.8486 75.9344H67.8519C69.6528 75.6757 71.4306 75.2761 73.1688 74.7392C73.2607 74.7097 73.3526 74.6835 73.4445 74.654C73.0207 72.6823 72.1483 70.8341 70.8946 69.2523C69.6409 67.6704 68.0395 66.3973 66.2141 65.5313C66.6656 65.1022 66.9777 64.5478 67.1101 63.9399C67.1953 63.548 67.2021 63.1432 67.13 62.7487C67.0579 62.3542 66.9084 61.9779 66.69 61.6412C66.2641 60.9888 65.5959 60.5318 64.8324 60.3707L59.9684 59.3556C59.1854 59.2033 58.3737 59.3656 57.71 59.807C57.0462 60.2485 56.584 60.9336 56.4237 61.7133C56.3741 61.9523 56.3521 62.1962 56.3581 62.4402C51.6746 65.5509 48.3039 68.7763 46.1738 72.2014Z" fill="#4584FF"/>
<path d="M65.4176 56.0798C71.9563 56.0798 77.257 50.7913 77.257 44.2677C77.257 37.744 71.9563 32.4556 65.4176 32.4556C58.8788 32.4556 53.5781 37.744 53.5781 44.2677C53.5781 50.7913 58.8788 56.0798 65.4176 56.0798Z" fill="#9E616A"/>
<path d="M63.7353 55.4487C60.7713 56.2473 57.5036 55.1855 55.1905 53.1713C52.8774 51.1572 51.4305 48.3031 50.5967 45.3551C49.9861 43.1961 49.6966 40.7994 50.6602 38.7725C51.6237 36.7456 54.217 35.378 56.2177 36.4019C54.9835 34.9672 55.6001 32.5944 57.0416 31.3671C58.483 30.1399 60.4624 29.788 62.3476 29.5956C65.0835 29.3165 67.9095 29.2852 70.5129 30.1695C73.1164 31.0539 75.4818 32.9872 76.2966 35.6078C77.1288 35.9944 78.066 36.0947 78.9614 35.893C79.8568 35.6913 80.6599 35.199 81.2448 34.4932C81.3957 35.3038 81.2745 36.1414 80.9002 36.8764C80.5258 37.6114 79.9191 38.2028 79.1739 38.5592L83.1629 37.2689C83.8489 38.7177 82.6468 40.5107 81.1096 40.9746C79.5725 41.4386 77.9131 40.9315 76.4544 40.2612C74.9957 39.5909 73.5821 38.7436 71.9977 38.4822C70.4132 38.2208 68.552 38.7287 67.8191 40.1544C67.4353 40.9011 67.4152 41.7757 67.1924 42.5849C66.9695 43.3941 66.4049 44.2331 65.5664 44.2993C65.0366 44.3412 64.5179 44.0596 63.9896 44.1172C63.6654 44.1809 63.3669 44.3375 63.1305 44.5679C62.8942 44.7983 62.7303 45.0924 62.659 45.4143C62.5274 46.0603 62.5258 46.7259 62.6542 47.3725L63.6675 55.0996L63.7353 55.4487Z" fill="#2F2E41"/>
</g>
<defs>
<clipPath id="clip0_6528_2854">
<rect width="265" height="175" fill="white" transform="translate(0.5)"/>
</clipPath>
</defs>
</svg>
