<svg width="150" height="160" viewBox="0 0 150 160" fill="none" xmlns="http://www.w3.org/2000/svg">
<g clip-path="url(#clip0_6452_1643)">
<path d="M236.794 169.988H-15.1145V170.114H236.794V169.988Z" fill="#EBEBEB"/>
<path d="M211.553 178.094H194.866V178.22H211.553V178.094Z" fill="#EBEBEB"/>
<path d="M151.759 179.464H147.381V179.59H151.759V179.464Z" fill="#EBEBEB"/>
<path d="M194.362 173.419H184.693V173.545H194.362V173.419Z" fill="#EBEBEB"/>
<path d="M33.076 174.265H11.3162V174.391H33.076V174.265Z" fill="#EBEBEB"/>
<path d="M40.7541 174.265H37.5649V174.391H40.7541V174.265Z" fill="#EBEBEB"/>
<path d="M98.3206 176.392H51.123V176.518H98.3206V176.392Z" fill="#EBEBEB"/>
<path d="M104.29 147.517H7.00799C6.24589 147.516 5.51546 147.212 4.97704 146.673C4.43863 146.134 4.13623 145.403 4.13623 144.641V7.88969C4.14286 7.13196 4.44819 6.40745 4.98589 5.87352C5.52359 5.3396 6.25023 5.03938 7.00799 5.03809H104.29C105.053 5.03809 105.785 5.34118 106.324 5.88068C106.864 6.42018 107.167 7.15191 107.167 7.91488V144.641C107.167 145.404 106.864 146.135 106.324 146.675C105.785 147.214 105.053 147.517 104.29 147.517ZM7.00799 5.13885C6.27929 5.14018 5.5809 5.43059 5.06611 5.94633C4.55131 6.46207 4.26218 7.16099 4.26218 7.88969V144.641C4.26218 145.369 4.55131 146.068 5.06611 146.584C5.5809 147.1 6.27929 147.39 7.00799 147.392H104.29C105.019 147.39 105.718 147.1 106.234 146.584C106.749 146.069 107.039 145.37 107.041 144.641V7.88969C107.039 7.16053 106.749 6.46162 106.234 5.94602C105.718 5.43043 105.019 5.14018 104.29 5.13885H7.00799Z" fill="#EBEBEB"/>
<path d="M213.27 147.517H115.983C115.22 147.516 114.489 147.213 113.95 146.673C113.411 146.134 113.108 145.403 113.106 144.641V7.88969C113.114 7.1315 113.421 6.40699 113.959 5.87321C114.498 5.33942 115.225 5.03937 115.983 5.03809H213.27C214.027 5.04071 214.752 5.34151 215.289 5.87529C215.825 6.40908 216.13 7.13283 216.137 7.88969V144.641C216.137 145.402 215.835 146.132 215.298 146.671C214.76 147.211 214.031 147.515 213.27 147.517ZM115.983 5.13885C115.254 5.14018 114.555 5.43043 114.039 5.94602C113.524 6.46162 113.233 7.16053 113.232 7.88969V144.641C113.233 145.37 113.524 146.069 114.039 146.584C114.555 147.1 115.254 147.39 115.983 147.392H213.27C213.999 147.39 214.698 147.1 215.214 146.584C215.729 146.069 216.02 145.37 216.021 144.641V7.88969C216.02 7.16053 215.729 6.46162 215.214 5.94602C214.698 5.43043 213.999 5.14018 213.27 5.13885H115.983Z" fill="#EBEBEB"/>
<path d="M130.837 65.0225L200.252 65.0225V19.5631L130.837 19.5631V65.0225Z" fill="#E6E6E6"/>
<path d="M128.716 65.022L199.26 65.022V19.5626L128.716 19.5626V65.022Z" fill="#F0F0F0"/>
<path d="M130.837 73.9399L200.252 73.9399V65.0173L130.837 65.0173V73.9399Z" fill="#E6E6E6"/>
<path d="M125.193 73.9399L195.737 73.9399V65.0173L125.193 65.0173V73.9399Z" fill="#F0F0F0"/>
<path d="M196.297 62.0597V22.5303L131.682 22.5303V62.0597L196.297 62.0597Z" fill="#FAFAFA"/>
<path d="M181.727 62.0547L173.474 22.5303H160.596L168.849 62.0547H181.727Z" fill="white"/>
<path d="M194.927 59.1077C194.955 59.1077 194.983 59.1021 195.009 59.0911C195.035 59.0802 195.059 59.0641 195.079 59.0439C195.098 59.0237 195.114 58.9998 195.124 58.9736C195.135 58.9473 195.14 58.9193 195.139 58.891V24.4602C195.139 24.4041 195.117 24.3503 195.077 24.3106C195.037 24.2709 194.983 24.2486 194.927 24.2486C194.899 24.2479 194.871 24.2529 194.845 24.2633C194.819 24.2737 194.796 24.2892 194.776 24.309C194.756 24.3288 194.741 24.3524 194.73 24.3784C194.72 24.4044 194.715 24.4322 194.716 24.4602V58.891C194.715 58.9193 194.72 58.9473 194.73 58.9736C194.741 58.9998 194.756 59.0237 194.776 59.0439C194.796 59.0641 194.819 59.0802 194.845 59.0911C194.871 59.1021 194.899 59.1077 194.927 59.1077Z" fill="#F0F0F0"/>
<path d="M166.084 62.0547L157.831 22.5303H152.808L161.066 62.0547H166.084Z" fill="white"/>
<path d="M132.06 62.0597V22.5303H131.682V62.0597H132.06Z" fill="#E6E6E6"/>
<path opacity="0.6" d="M128.019 26.9998H197.435L197.707 23.6797H128.291L128.019 26.9998Z" fill="#EBEBEB"/>
<path opacity="0.6" d="M128.019 32.4401H197.435L197.707 29.125H128.291L128.019 32.4401Z" fill="#EBEBEB"/>
<path opacity="0.6" d="M128.019 37.882H197.435L197.707 34.5669H128.291L128.019 37.882Z" fill="#EBEBEB"/>
<path opacity="0.6" d="M128.019 43.3285H197.435L197.707 40.0083H128.291L128.019 43.3285Z" fill="#EBEBEB"/>
<path opacity="0.6" d="M128.019 48.7694H197.435L197.707 45.4492H128.291L128.019 48.7694Z" fill="#EBEBEB"/>
<path opacity="0.6" d="M128.019 54.2103H197.435L197.707 50.8901H128.291L128.019 54.2103Z" fill="#EBEBEB"/>
<path d="M190.288 136.928H175.732V139.799H190.288V136.928Z" fill="#E6E6E6"/>
<path d="M148.279 169.988H150.965V103.953H148.279V169.988Z" fill="#E6E6E6"/>
<path d="M138.967 139.799H175.726V136.928H138.967V139.799Z" fill="#F5F5F5"/>
<path d="M190.288 152.632H175.732V155.504H190.288V152.632Z" fill="#E6E6E6"/>
<path d="M138.967 155.498H175.726V152.626H138.967V155.498Z" fill="#F5F5F5"/>
<path d="M190.288 105.524H175.732V108.396H190.288V105.524Z" fill="#E6E6E6"/>
<path d="M138.967 108.391H175.726V105.519H138.967V108.391Z" fill="#F5F5F5"/>
<path d="M190.288 121.224H175.732V124.095H190.288V121.224Z" fill="#E6E6E6"/>
<path d="M138.967 124.095H175.726V121.223H138.967V124.095Z" fill="#F5F5F5"/>
<path d="M185.042 169.988H187.728V103.953H185.042V169.988Z" fill="#E6E6E6"/>
<path d="M173.04 169.988H175.726V103.953H173.04V169.988Z" fill="#F5F5F5"/>
<path d="M138.967 169.988H141.653V103.953H138.967V169.988Z" fill="#F5F5F5"/>
<path d="M17.8254 169.988H45.3237L45.3237 116.639H17.8254L17.8254 169.988Z" fill="#E6E6E6"/>
<path d="M25.1645 169.988H17.8188V162.622H32.8628L25.1645 169.988Z" fill="#FAFAFA"/>
<path d="M17.8255 167.448H99.207V116.633H17.8255V167.448Z" fill="#FAFAFA"/>
<path d="M91.8614 169.988H99.202V162.622H84.1631L91.8614 169.988Z" fill="#FAFAFA"/>
<path d="M23.5176 148.288H93.5078V135.572H23.5176V148.288Z" fill="#F0F0F0"/>
<path d="M23.5176 163.72H93.5078V151.003H23.5176V163.72Z" fill="#F0F0F0"/>
<path d="M80.2073 136.932H36.8237C36.2117 136.932 35.6248 136.689 35.192 136.256C34.7593 135.824 34.5162 135.237 34.5162 134.625V134.468H82.5098V134.625C82.5098 135.236 82.2673 135.822 81.8357 136.254C81.4041 136.687 80.8184 136.931 80.2073 136.932Z" fill="#FAFAFA"/>
<path d="M23.5176 132.851H93.5078V120.135L23.5176 120.135V132.851Z" fill="#F0F0F0"/>
<path d="M80.2073 121.496H36.8237C36.2117 121.496 35.6248 121.252 35.192 120.82C34.7593 120.387 34.5162 119.8 34.5162 119.188V119.032H82.5098V119.188C82.5098 119.799 82.2673 120.385 81.8357 120.818C81.4041 121.251 80.8184 121.494 80.2073 121.496Z" fill="#FAFAFA"/>
<path d="M80.2073 152.369H36.8237C36.2117 152.369 35.6248 152.126 35.192 151.693C34.7593 151.261 34.5162 150.674 34.5162 150.062V149.905H82.5098V150.062C82.5098 150.673 82.2673 151.259 81.8357 151.692C81.4041 152.124 80.8184 152.368 80.2073 152.369Z" fill="#FAFAFA"/>
<path d="M22.2028 65.022L91.6187 65.022V19.5626L22.2028 19.5626V65.022Z" fill="#E6E6E6"/>
<path d="M20.0869 65.022L90.6313 65.022V19.5626L20.0869 19.5626V65.022Z" fill="#F0F0F0"/>
<path d="M22.2028 73.9399L91.6187 73.9399V65.0173L22.2028 65.0173V73.9399Z" fill="#E6E6E6"/>
<path d="M16.5559 73.9399L87.1003 73.9399V65.0173L16.5559 65.0173V73.9399Z" fill="#F0F0F0"/>
<path d="M87.6646 62.0602V22.5308L23.05 22.5308V62.0602L87.6646 62.0602Z" fill="#FAFAFA"/>
<path d="M73.0944 62.0552L64.8419 22.5308H51.9644L60.2169 62.0552H73.0944Z" fill="white"/>
<path d="M86.2886 59.1077C86.3168 59.1077 86.3447 59.1021 86.3707 59.0911C86.3967 59.0802 86.4203 59.0641 86.44 59.0439C86.4597 59.0237 86.4752 58.9998 86.4855 58.9736C86.4959 58.9473 86.5008 58.9193 86.5002 58.891V24.4602C86.5009 24.4322 86.4959 24.4044 86.4855 24.3784C86.4751 24.3524 86.4595 24.3288 86.4397 24.309C86.4199 24.2892 86.3963 24.2737 86.3704 24.2633C86.3444 24.2529 86.3165 24.2479 86.2886 24.2486C86.2324 24.2486 86.1786 24.2709 86.1389 24.3106C86.0993 24.3503 86.077 24.4041 86.077 24.4602V58.891C86.0763 58.9193 86.0813 58.9473 86.0916 58.9736C86.1019 58.9998 86.1174 59.0237 86.1371 59.0439C86.1568 59.0641 86.1804 59.0802 86.2064 59.0911C86.2324 59.1021 86.2603 59.1077 86.2886 59.1077Z" fill="#F0F0F0"/>
<path d="M57.4496 62.0552L49.1971 22.5308H44.1741L52.4266 62.0552H57.4496Z" fill="white"/>
<path d="M23.4277 62.0602L23.4277 22.5308H23.0499L23.0499 62.0602H23.4277Z" fill="#E6E6E6"/>
<path opacity="0.6" d="M19.3818 26.9998H88.7977L89.0698 23.6797H19.6539L19.3818 26.9998Z" fill="#EBEBEB"/>
<path opacity="0.6" d="M19.3818 28.8734H88.7977L89.0698 25.5532H19.6539L19.3818 28.8734Z" fill="#EBEBEB"/>
<path opacity="0.6" d="M19.3818 30.7428H88.7977L89.0698 27.4277H19.6539L19.3818 30.7428Z" fill="#EBEBEB"/>
<path opacity="0.6" d="M19.3818 32.6175H88.7977L89.0698 29.2974H19.6539L19.3818 32.6175Z" fill="#EBEBEB"/>
<path opacity="0.6" d="M19.3818 34.486H88.7977L89.0698 31.1709H19.6539L19.3818 34.486Z" fill="#EBEBEB"/>
<path opacity="0.6" d="M19.3818 36.3602H88.7977L89.0698 33.04H19.6539L19.3818 36.3602Z" fill="#EBEBEB"/>
<path d="M33.261 115.006H35.6592V88.2582H33.261V115.006Z" fill="#F5F5F5"/>
<path d="M33.5652 114.991H34.2454V88.2436H33.5652V114.991Z" fill="#FAFAFA"/>
<path d="M34.5262 114.991H34.7932V88.2436H34.5262V114.991Z" fill="#FAFAFA"/>
<path d="M43.3428 116.639H25.5883C25.5883 116.045 25.8239 115.476 26.2435 115.057C26.663 114.637 27.2319 114.402 27.8252 114.402H41.1008C41.6941 114.402 42.263 114.637 42.6826 115.057C43.1021 115.476 43.3377 116.045 43.3377 116.639H43.3428Z" fill="#F0F0F0"/>
<path d="M30.1486 104.864C30.3313 104.863 30.5061 104.79 30.6352 104.661C30.7644 104.532 30.8375 104.357 30.8389 104.174V86.6566C30.8389 86.4735 30.7661 86.2979 30.6367 86.1685C30.5073 86.039 30.3317 85.9663 30.1486 85.9663C30.0576 85.9657 29.9673 85.983 29.883 86.0174C29.7986 86.0518 29.7219 86.1025 29.6573 86.1667C29.5927 86.2309 29.5414 86.3072 29.5064 86.3912C29.4714 86.4753 29.4534 86.5655 29.4534 86.6566V104.194C29.4599 104.374 29.536 104.545 29.6657 104.67C29.7954 104.795 29.9685 104.865 30.1486 104.864Z" fill="#F0F0F0"/>
<path d="M23.7148 94.6168H45.2026L42.7289 79.603H26.1886L23.7148 94.6168Z" fill="#E0E0E0"/>
<path d="M110.84 192.74C164.79 192.74 208.525 190.187 208.525 187.037C208.525 183.887 164.79 181.334 110.84 181.334C56.8899 181.334 13.1548 183.887 13.1548 187.037C13.1548 190.187 56.8899 192.74 110.84 192.74Z" fill="#F5F5F5"/>
<path d="M44.8997 75.9213L44.3972 75.9575L45.0665 85.249L45.569 85.2128L44.8997 75.9213Z" fill="#B0BEC5"/>
<path d="M45.91 90.0092L45.4075 90.0454L45.6594 93.5429L46.1619 93.5067L45.91 90.0092Z" fill="#B0BEC5"/>
<path d="M162.586 132.752H54.6884C53.4874 132.731 52.3369 132.265 51.4587 131.445C50.5805 130.626 50.0368 129.51 49.9324 128.313L44.6322 54.6907C44.5829 54.1229 44.6531 53.5511 44.8383 53.0121C45.0234 52.4731 45.3194 51.9788 45.7072 51.5611C46.0949 51.1435 46.5659 50.8117 47.0897 50.5871C47.6135 50.3625 48.1785 50.2501 48.7484 50.2571H156.646C157.846 50.2786 158.996 50.7434 159.874 51.5619C160.752 52.3805 161.296 53.4949 161.402 54.6907L166.702 128.313C166.751 128.882 166.681 129.454 166.496 129.993C166.311 130.532 166.015 131.027 165.627 131.445C165.24 131.863 164.769 132.195 164.245 132.42C163.721 132.645 163.156 132.758 162.586 132.752Z" fill="#B0BEC5"/>
<path d="M162.999 132.752H55.1018C53.9007 132.731 52.7502 132.265 51.872 131.445C50.9938 130.626 50.4501 129.51 50.3457 128.313L45.0456 54.6907C44.9963 54.1229 45.0665 53.5511 45.2516 53.0121C45.4367 52.4731 45.7327 51.9788 46.1205 51.5611C46.5082 51.1435 46.9792 50.8117 47.503 50.5871C48.0268 50.3625 48.5919 50.2501 49.1618 50.2571H157.059C158.259 50.2786 159.409 50.7434 160.287 51.5619C161.165 52.3805 161.71 53.4949 161.815 54.6907L167.115 128.313C167.165 128.882 167.096 129.454 166.911 129.994C166.726 130.533 166.43 131.028 166.042 131.446C165.655 131.865 165.183 132.197 164.659 132.422C164.135 132.647 163.57 132.759 162.999 132.752Z" fill="#B0BEC5"/>
<path opacity="0.5" d="M162.999 132.752H55.1018C53.9007 132.731 52.7502 132.265 51.872 131.445C50.9938 130.626 50.4501 129.51 50.3457 128.313L45.0456 54.6907C44.9963 54.1229 45.0665 53.5511 45.2516 53.0121C45.4367 52.4731 45.7327 51.9788 46.1205 51.5611C46.5082 51.1435 46.9792 50.8117 47.503 50.5871C48.0268 50.3625 48.5919 50.2501 49.1618 50.2571H157.059C158.259 50.2786 159.409 50.7434 160.287 51.5619C161.165 52.3805 161.71 53.4949 161.815 54.6907L167.115 128.313C167.165 128.882 167.096 129.454 166.911 129.994C166.726 130.533 166.43 131.028 166.042 131.446C165.655 131.865 165.183 132.197 164.659 132.422C164.135 132.647 163.57 132.759 162.999 132.752Z" fill="white"/>
<path d="M157.222 52.4741H49.3242H48.9615C46.2056 52.7008 46.7699 56.8976 49.5509 56.8976H157.63C160.416 56.8976 160.376 52.7008 157.584 52.4741H157.222Z" fill="#B0BEC5"/>
<path d="M52.1349 54.6903C52.1455 54.8202 52.1288 54.9509 52.0857 55.0739C52.0427 55.1969 51.9743 55.3095 51.8851 55.4045C51.7958 55.4994 51.6876 55.5746 51.5675 55.6252C51.4474 55.6757 51.318 55.7005 51.1878 55.698C50.9139 55.6941 50.6512 55.589 50.4503 55.403C50.2493 55.2169 50.1244 54.9631 50.0995 54.6903C50.089 54.5609 50.1056 54.4307 50.1483 54.308C50.1911 54.1854 50.259 54.073 50.3477 53.9781C50.4364 53.8832 50.5439 53.808 50.6634 53.7571C50.783 53.7062 50.9118 53.6809 51.0416 53.6827C51.3163 53.6853 51.5803 53.7898 51.7823 53.976C51.9843 54.1622 52.11 54.4168 52.1349 54.6903Z" fill="#FAFAFA"/>
<path d="M55.5968 54.6903C55.6074 54.8202 55.5907 54.9509 55.5476 55.0739C55.5046 55.1969 55.4362 55.3095 55.347 55.4045C55.2577 55.4994 55.1496 55.5746 55.0295 55.6252C54.9093 55.6757 54.78 55.7005 54.6497 55.698C54.3758 55.6941 54.1131 55.589 53.9122 55.403C53.7112 55.2169 53.5863 54.9631 53.5614 54.6903C53.5509 54.5609 53.5675 54.4307 53.6102 54.308C53.653 54.1854 53.7209 54.073 53.8096 53.9781C53.8983 53.8832 54.0059 53.808 54.1254 53.7571C54.2449 53.7062 54.3737 53.6809 54.5036 53.6827C54.7783 53.6853 55.0422 53.7898 55.2442 53.976C55.4462 54.1622 55.5719 54.4168 55.5968 54.6903Z" fill="#FAFAFA"/>
<path d="M59.0527 54.6904C59.0633 54.8199 59.0466 54.9501 59.0039 55.0728C58.9612 55.1954 58.8933 55.3078 58.8046 55.4027C58.7158 55.4975 58.6083 55.5728 58.4888 55.6237C58.3693 55.6746 58.2404 55.6999 58.1106 55.6981C57.8364 55.6953 57.5731 55.5906 57.3719 55.4044C57.1707 55.2181 57.0461 54.9636 57.0223 54.6904C57.011 54.5608 57.0271 54.4303 57.0695 54.3072C57.1119 54.1842 57.1798 54.0716 57.2687 53.9765C57.3576 53.8815 57.4654 53.8062 57.5853 53.7556C57.7052 53.705 57.8344 53.6802 57.9645 53.6828C58.2383 53.6867 58.501 53.7917 58.702 53.9778C58.9029 54.1639 59.0278 54.4177 59.0527 54.6904Z" fill="#FAFAFA"/>
<path d="M160.139 125.406H56.9317C56.4957 125.399 56.0779 125.23 55.7595 124.932C55.4411 124.634 55.2448 124.229 55.2086 123.794L50.8506 63.2505C50.8312 63.0427 50.8562 62.8332 50.924 62.6359C50.9918 62.4385 51.1008 62.2579 51.2437 62.1059C51.3866 61.9539 51.5603 61.834 51.7531 61.7543C51.9459 61.6745 52.1535 61.6367 52.3621 61.6433H155.594C156.03 61.6493 156.447 61.8172 156.766 62.1143C157.084 62.4114 157.281 62.8164 157.317 63.2505L161.68 123.794C161.699 124.005 161.673 124.217 161.603 124.416C161.533 124.615 161.421 124.798 161.275 124.95C161.129 125.103 160.952 125.223 160.756 125.301C160.56 125.38 160.35 125.416 160.139 125.406Z" fill="white"/>
<path d="M116.649 102.341L114.966 79.0046L109.877 75.9414H95.8662L97.7706 102.341H116.649Z" fill="white"/>
<path d="M116.648 102.583H97.7704C97.708 102.584 97.6474 102.562 97.6013 102.519C97.5553 102.477 97.5274 102.419 97.5236 102.356L95.6242 75.9563C95.6217 75.9232 95.6263 75.8899 95.6376 75.8587C95.6489 75.8274 95.6666 75.7989 95.6897 75.7749C95.7119 75.7501 95.739 75.7301 95.7694 75.7162C95.7997 75.7023 95.8326 75.6949 95.866 75.6943H109.877C109.921 75.6959 109.965 75.708 110.003 75.7296L115.092 78.7928C115.126 78.8124 115.155 78.8401 115.176 78.8735C115.197 78.9069 115.21 78.9449 115.213 78.9843L116.885 102.321C116.889 102.355 116.885 102.389 116.873 102.422C116.862 102.454 116.844 102.483 116.82 102.507C116.798 102.531 116.771 102.55 116.742 102.563C116.712 102.576 116.681 102.583 116.648 102.583ZM98.0072 102.079H116.381L114.729 79.1304L109.832 76.183H96.128L98.0072 102.079Z" fill="#B0BEC5"/>
<path d="M114.966 79.0046L109.877 75.9414L111.746 80.0022L114.966 79.0046Z" fill="#EBEBEB"/>
<path d="M111.748 80.2438C111.701 80.2435 111.656 80.2302 111.617 80.2052C111.578 80.1802 111.546 80.1447 111.526 80.1027L109.657 76.042C109.635 75.9943 109.629 75.941 109.639 75.8895C109.649 75.838 109.675 75.7909 109.712 75.7548C109.752 75.7206 109.802 75.6998 109.855 75.6953C109.907 75.6907 109.959 75.7027 110.005 75.7296L115.093 78.7928C115.134 78.8174 115.167 78.8533 115.189 78.8961C115.21 78.9389 115.219 78.987 115.214 79.0346C115.208 79.081 115.188 79.1246 115.158 79.1603C115.127 79.1959 115.088 79.2223 115.043 79.2362L111.818 80.2438H111.748ZM110.433 76.5558L111.879 79.7047L114.398 78.9339L110.433 76.5558Z" fill="#B0BEC5"/>
<path d="M103.786 87.8319C103.794 87.9688 103.773 88.1058 103.726 88.2345C103.679 88.3633 103.606 88.481 103.511 88.5805C103.417 88.68 103.303 88.7592 103.177 88.8133C103.051 88.8674 102.916 88.8951 102.779 88.8949C102.491 88.8898 102.216 88.7783 102.005 88.582C101.795 88.3857 101.665 88.1185 101.64 87.8319C101.627 87.6935 101.644 87.554 101.689 87.4226C101.734 87.2912 101.807 87.1709 101.902 87.0699C101.998 86.9688 102.113 86.8892 102.242 86.8364C102.37 86.7836 102.509 86.7589 102.648 86.7638C102.936 86.7702 103.211 86.8827 103.421 87.0799C103.632 87.277 103.762 87.5448 103.786 87.8319Z" fill="#B0BEC5"/>
<path d="M110.689 87.8318C110.701 87.9697 110.683 88.1087 110.638 88.2395C110.592 88.3703 110.52 88.4899 110.424 88.5904C110.329 88.6909 110.213 88.77 110.085 88.8225C109.957 88.875 109.819 88.8996 109.681 88.8948C109.393 88.8898 109.117 88.7785 108.906 88.5823C108.694 88.3861 108.563 88.1188 108.537 87.8318C108.529 87.6944 108.549 87.5569 108.596 87.4276C108.643 87.2983 108.716 87.1799 108.81 87.0798C108.904 86.9798 109.018 86.9001 109.145 86.8457C109.271 86.7913 109.407 86.7634 109.545 86.7637C109.834 86.7677 110.112 86.8793 110.323 87.0768C110.534 87.2743 110.665 87.5434 110.689 87.8318Z" fill="#B0BEC5"/>
<path d="M112.643 94.7543C112.582 94.7533 112.523 94.7295 112.478 94.6876C112.434 94.6457 112.406 94.5886 112.401 94.5276C112.275 92.8096 109.585 91.414 106.406 91.414C104.295 91.414 102.4 92.0438 101.463 93.0514C101.271 93.2371 101.12 93.4616 101.021 93.71C100.922 93.9585 100.877 94.2251 100.889 94.4923C100.891 94.5254 100.887 94.5586 100.877 94.5901C100.866 94.6215 100.849 94.6506 100.828 94.6756C100.784 94.7262 100.722 94.7572 100.655 94.7619C100.588 94.7665 100.522 94.7445 100.471 94.7005C100.421 94.6566 100.39 94.5944 100.385 94.5276C100.37 94.1936 100.425 93.8602 100.547 93.5487C100.668 93.2372 100.853 92.9545 101.091 92.7189C102.098 91.6155 104.149 90.9253 106.391 90.9253C109.882 90.9253 112.729 92.4922 112.87 94.4923C112.872 94.5241 112.868 94.5559 112.857 94.5861C112.847 94.6162 112.831 94.644 112.81 94.6679C112.789 94.6917 112.763 94.7112 112.735 94.7252C112.706 94.7392 112.675 94.7473 112.643 94.7493V94.7543Z" fill="#B0BEC5"/>
<path d="M99.8416 85.6755C99.7801 85.6743 99.7211 85.651 99.6753 85.61C99.6295 85.5638 99.6038 85.5013 99.6038 85.4362C99.6038 85.3711 99.6295 85.3086 99.6753 85.2624L100.748 84.1087C100.794 84.0643 100.856 84.0396 100.92 84.0396C100.984 84.0396 101.045 84.0643 101.091 84.1087C101.114 84.1311 101.131 84.1578 101.144 84.1872C101.156 84.2166 101.162 84.2481 101.162 84.28C101.162 84.3118 101.156 84.3433 101.144 84.3727C101.131 84.4021 101.114 84.4288 101.091 84.4512L100.018 85.605C99.9948 85.628 99.9673 85.6462 99.937 85.6583C99.9067 85.6704 99.8742 85.6763 99.8416 85.6755Z" fill="#B0BEC5"/>
<path d="M112.14 85.6755C112.079 85.6727 112.02 85.6496 111.974 85.61L110.739 84.4563C110.716 84.4337 110.698 84.4067 110.685 84.3769C110.672 84.347 110.666 84.3149 110.666 84.2825C110.666 84.25 110.672 84.2179 110.685 84.1881C110.698 84.1582 110.716 84.1312 110.739 84.1087C110.785 84.0643 110.847 84.0396 110.911 84.0396C110.975 84.0396 111.036 84.0643 111.082 84.1087L112.316 85.2624C112.339 85.2849 112.357 85.3116 112.369 85.341C112.381 85.3703 112.388 85.4019 112.388 85.4337C112.388 85.4655 112.381 85.497 112.369 85.5264C112.357 85.5558 112.339 85.5825 112.316 85.605C112.269 85.6497 112.206 85.6749 112.14 85.6755Z" fill="#B0BEC5"/>
<path d="M94.3442 107.556H95.4829L97.1253 109.743L96.9691 107.556H98.1178L98.4 111.506H97.2361L95.6038 109.335L95.76 111.506H94.6113L94.3442 107.556Z" fill="#B0BEC5"/>
<path d="M98.9151 109.531C98.8762 109.263 98.8947 108.989 98.9694 108.729C99.0441 108.468 99.1733 108.226 99.3484 108.019C99.5398 107.831 99.769 107.686 100.021 107.593C100.273 107.5 100.542 107.461 100.809 107.48C101.377 107.449 101.935 107.639 102.366 108.009C102.761 108.403 102.99 108.933 103.006 109.49C103.048 109.875 102.996 110.264 102.855 110.624C102.724 110.914 102.506 111.156 102.23 111.314C101.899 111.492 101.527 111.577 101.152 111.561C100.767 111.573 100.383 111.501 100.029 111.35C99.7179 111.2 99.4559 110.966 99.2728 110.674C99.0566 110.331 98.9334 109.937 98.9151 109.531ZM100.139 109.531C100.134 109.84 100.234 110.142 100.421 110.387C100.5 110.474 100.597 110.542 100.705 110.588C100.813 110.633 100.929 110.654 101.046 110.649C101.158 110.657 101.27 110.638 101.372 110.593C101.475 110.548 101.565 110.479 101.636 110.392C101.78 110.117 101.828 109.801 101.772 109.496C101.774 109.199 101.674 108.911 101.49 108.679C101.409 108.594 101.311 108.527 101.202 108.483C101.094 108.439 100.977 108.418 100.86 108.422C100.75 108.418 100.641 108.439 100.541 108.484C100.441 108.53 100.354 108.598 100.285 108.684C100.138 108.944 100.086 109.247 100.139 109.541V109.531Z" fill="#B0BEC5"/>
<path d="M105.374 107.556H107.187C107.486 107.547 107.784 107.596 108.064 107.702C108.285 107.795 108.482 107.938 108.638 108.121C108.797 108.306 108.918 108.519 108.996 108.75C109.078 108.998 109.128 109.256 109.147 109.516C109.186 109.845 109.16 110.179 109.072 110.499C109.002 110.72 108.879 110.921 108.714 111.083C108.576 111.229 108.402 111.337 108.21 111.395C107.976 111.463 107.734 111.501 107.49 111.506H105.681L105.374 107.556ZM106.658 108.453L106.814 110.609H107.112C107.296 110.621 107.48 110.592 107.651 110.524C107.764 110.458 107.847 110.352 107.883 110.227C107.94 110.003 107.954 109.77 107.923 109.541C107.932 109.234 107.838 108.932 107.656 108.685C107.562 108.6 107.452 108.536 107.332 108.496C107.213 108.456 107.086 108.442 106.961 108.453H106.658Z" fill="#B0BEC5"/>
<path d="M112.074 110.851H110.689L110.543 111.506H109.298L110.497 107.556H111.847L113.616 111.506H112.336L112.074 110.851ZM111.757 110L111.223 108.579L110.89 110H111.757Z" fill="#B0BEC5"/>
<path d="M113.041 107.556H116.749L116.819 108.534H115.575L115.786 111.506H114.567L114.355 108.534H113.111L113.041 107.556Z" fill="#B0BEC5"/>
<path d="M119.59 110.851H118.205L118.059 111.506H116.814L118.013 107.556H119.343L121.107 111.506H119.832L119.59 110.851ZM119.273 110L118.734 108.579L118.396 110H119.273Z" fill="#B0BEC5"/>
</g>
<defs>
<clipPath id="clip0_6452_1643">
<rect width="220" height="198.168" fill="white"/>
</clipPath>
</defs>
</svg>
